<?xml version="1.0" encoding="UTF-8" standalone="no"?>
<!DOCTYPE svg PUBLIC "-//W3C//DTD SVG 1.1//EN" "http://www.w3.org/Graphics/SVG/1.1/DTD/svg11.dtd">
<svg width="100%" height="100%" viewBox="0 0 507 802" version="1.1" xmlns="http://www.w3.org/2000/svg" xmlns:xlink="http://www.w3.org/1999/xlink" xml:space="preserve" xmlns:serif="http://www.serif.com/" style="fill-rule:evenodd;clip-rule:evenodd;stroke-linejoin:round;stroke-miterlimit:2;">
    <g transform="matrix(1,0,0,1,-146.870396,0.603147)">
        <g transform="matrix(5.125905,0,0,5.125905,147.36977,0)">
            <path d="M10.52,144.16C12.12,138.16 17.11,134.8 20.29,130.16C23.68,125.16 27.37,120.46 30.98,115.66C34.41,111.08 37.98,106.61 41.36,101.98C44.893,97.133 48.33,92.21 51.67,87.21C54.81,82.5 58.94,78.39 60.91,72.56C59.603,71.066 58.197,69.663 56.7,68.36C45.53,59.81 35.7,49.76 25.63,40.07C17.731,32.492 9.332,25.453 0.49,19C-0.87,15.22 0.77,11.87 3.34,9.06C5.874,6.342 8.626,3.837 11.57,1.57C14.66,-0.84 18.18,-0.21 21.31,1.47C26.36,4.17 31.22,7.19 36.16,10.09C36.65,10.38 37.08,10.78 37.58,11.09C55.06,20.81 69.32,34.42 83,48.78C86.94,52.93 91.07,56.89 95,61.07C99.29,65.66 99.69,67.96 96.68,73.28C93,79.74 89,86 85.09,92.35C82.56,96.5 79.95,100.6 77.48,104.79C69.6,118.17 59.26,129.68 49.59,141.71C46.019,146.166 41.927,150.178 37.4,153.66C33.4,156.73 29.91,156.86 25.6,154.08C20.81,151 16.09,147.83 10.52,144.16ZM88.24,67.36C71.58,44.79 35.44,15.36 16.37,8.86C14.06,10.71 11.57,12.53 10.54,16.17C12.97,18.17 15.38,20.17 17.71,22.23C24.36,28.08 31.29,33.68 37.55,39.93C46.797,49.292 56.577,58.114 66.84,66.35C68.59,67.74 70.13,69.35 72.11,71.23C70.43,74.8 69.26,78.4 67.22,81.4C60.96,90.62 54.503,99.703 47.85,108.65C40.33,118.74 32.49,128.58 24.85,138.56C24.234,139.493 23.686,140.469 23.21,141.48C25,144.68 27.8,145.79 30.59,146.61C37.37,142.15 49.59,128.84 59.24,115.61C73.15,96.5 86.16,74.86 88.24,67.36Z" style="fill:white;fill-rule:nonzero;stroke:white;stroke-width:0.2px;"/>
        </g>
    </g>
</svg>
