<?xml version="1.0" encoding="UTF-8" standalone="no"?>
<!DOCTYPE svg PUBLIC "-//W3C//DTD SVG 1.1//EN" "http://www.w3.org/Graphics/SVG/1.1/DTD/svg11.dtd">
<svg width="100%" height="100%" viewBox="0 0 296 269" version="1.1" xmlns="http://www.w3.org/2000/svg" xmlns:xlink="http://www.w3.org/1999/xlink" xml:space="preserve" xmlns:serif="http://www.serif.com/" style="fill-rule:evenodd;clip-rule:evenodd;stroke-linejoin:round;stroke-miterlimit:2;">
    <g transform="matrix(1,0,0,1,-1095.761848,-131.830093)">
        <g transform="matrix(4.166667,0,0,4.166667,0,0)">
            <g transform="matrix(0.949117,0.314923,-0.314923,0.949117,266.79735,67.476134)">
                <path d="M0,-37.556C0,-37.556 40.722,-53.364 51,-45.889C61.278,-38.415 66.667,-9.889 64,-6.223C61.652,-2.995 51.27,-0.16 48,3.111C44.73,6.381 51.791,13.005 47.12,14.406C42.448,15.808 31.333,7.111 31.333,7.111C31.333,7.111 11.806,12.712 6.667,11.777C1.528,10.843 -24.293,-31.95 0,-37.556ZM2.357,-26.684C-1.63,-24.618 -0.524,-21.29 2.711,-21.437C5.946,-21.584 38.787,-31.848 42.399,-32.954C46.01,-34.061 50.301,-35.783 47.21,-38.241C44.12,-40.7 2.357,-26.684 2.357,-26.684ZM20.691,-7.018C16.704,-4.952 17.81,-1.624 21.045,-1.771C24.28,-1.918 39.056,-7.783 42.667,-8.889C46.278,-9.996 53.091,-13.097 50.001,-15.556C46.91,-18.015 20.691,-7.018 20.691,-7.018ZM6.691,-15.684C2.704,-13.618 3.81,-10.29 7.045,-10.437C10.28,-10.584 43.121,-20.848 46.733,-21.954C50.344,-23.061 54.635,-24.783 51.544,-27.241C48.454,-29.7 6.691,-15.684 6.691,-15.684Z" style="fill:white;"/>
            </g>
        </g>
    </g>
</svg>
