<?xml version="1.0" encoding="UTF-8" standalone="no"?>
<!DOCTYPE svg PUBLIC "-//W3C//DTD SVG 1.1//EN" "http://www.w3.org/Graphics/SVG/1.1/DTD/svg11.dtd">
<svg width="100%" height="100%" viewBox="0 0 420 677" version="1.1" xmlns="http://www.w3.org/2000/svg" xmlns:xlink="http://www.w3.org/1999/xlink" xml:space="preserve" xmlns:serif="http://www.serif.com/" style="fill-rule:evenodd;clip-rule:evenodd;stroke-linejoin:round;stroke-miterlimit:2;">
    <g transform="matrix(1,0,0,1,-1441.73854,-645.586067)">
        <g transform="matrix(4.166667,0,0,4.166667,0,0)">
            <g transform="matrix(1,0,0,1,424.1914,261.2496)">
                <path d="M0,-50.171C1.039,-50.948 2.233,-51.458 3.436,-51.917C4.062,-52.157 5.95,-52.638 4.854,-51.393C3.672,-50.053 2.182,-49.002 0.718,-47.996C-0.447,-47.194 -1.763,-46.415 -3.074,-45.589C-2.367,-46.461 -1.707,-47.371 -1.13,-48.328C-0.926,-48.665 -1.462,-48.913 -1.67,-48.594C-2.741,-46.961 -4.137,-45.588 -5.355,-44.077C-5.761,-43.786 -6.15,-43.483 -6.529,-43.171C-4.546,-45.676 -2.667,-48.179 0,-50.171M8.23,-45.807C11.153,-46.952 14.185,-47.881 17.086,-49.094C11.466,-45.18 5.555,-41.938 -0.753,-39.136C-2.549,-38.337 -4.317,-37.485 -5.899,-36.426C-1.887,-40.203 2.341,-43.499 8.23,-45.807M17.087,-46.396C15.706,-44.865 13.925,-43.729 12.182,-42.664C6.22,-39.021 -1.339,-37.622 -7.538,-34.403C-4.58,-37.061 -0.35,-38.434 3.171,-40.055C9.047,-42.762 14.825,-46.014 19.747,-50.234C19.872,-49.9 17.709,-47.086 17.087,-46.396M0.996,-30.492C-4.817,-30.776 -11.149,-28.487 -14.623,-23.772C-14.293,-24.546 -13.969,-25.322 -13.655,-26.106C-9.809,-30.227 -4.036,-34.456 0.996,-30.492M1.306,-21.882C3.347,-20.532 2.532,-19.607 -1.142,-19.11C-2.968,-18.203 -4.849,-17.399 -6.716,-16.576C-10.398,-14.956 -14.067,-13.297 -17.76,-11.704C-18.419,-11.42 -19.058,-11.112 -19.69,-10.791C-19.452,-11.035 -19.215,-11.28 -18.977,-11.522C-15.283,-13.332 -11.277,-14.763 -8.215,-17.442C-7.748,-17.85 -8.277,-18.665 -8.771,-18.255C-11.332,-16.143 -14.342,-14.737 -17.271,-13.27C-12.145,-18.485 -6.84,-23.225 1.306,-21.882M-25.44,-1.917C-24.037,-2.649 -22.56,-3.229 -21.026,-3.726C-22.484,-3.079 -23.934,-2.475 -25.44,-1.917M-8.118,-7.815C-7.112,-8.311 -6.154,-8.888 -5.249,-9.545C-2.985,-11.043 -8.852,-5.607 -8.236,-6.13C-12.229,-2.73 -18.856,-0.255 -24.04,0.504C-26.157,0.815 -28.106,0.87 -29.907,1.318C-29.479,0.896 -29.043,0.494 -28.593,0.129C-27.31,-0.486 -25.862,-0.877 -24.621,-1.282C-23.042,-1.798 -20.537,-2.296 -19.492,-3.725C-19.388,-3.867 -19.428,-4.067 -19.539,-4.184C-17.856,-4.675 -16.125,-5.102 -14.366,-5.559C-12.253,-6.108 -10.042,-6.766 -8.118,-7.815M-31.516,1.625C-31.518,1.71 -31.491,1.769 -31.438,1.813C-31.442,1.817 -31.444,1.821 -31.449,1.826C-31.539,1.866 -31.626,1.907 -31.715,1.95C-31.647,1.841 -31.583,1.734 -31.516,1.625M-31.673,-0.691C-31.581,-0.67 -31.483,-0.652 -31.392,-0.63C-31.378,-0.41 -31.373,-0.187 -31.376,0.048C-31.378,0.056 -31.378,0.064 -31.38,0.076C-31.381,0.081 -31.376,0.083 -31.377,0.087C-31.379,0.134 -31.383,0.181 -31.384,0.23C-31.664,0.688 -31.949,1.146 -32.235,1.602C-32.012,0.832 -31.817,0.067 -31.673,-0.691M-46.382,-9.995C-47.404,-10.717 -48.358,-11.519 -49.3,-12.342C-49.415,-12.446 -49.514,-12.563 -49.625,-12.669C-49.327,-12.502 -49.031,-12.344 -48.738,-12.189C-44.068,-9.734 -35.764,-8.691 -32.618,-4.213C-32.9,-4.302 -33.185,-4.394 -33.457,-4.483C-35.675,-5.221 -37.875,-5.728 -39.756,-7.199C-40.029,-7.411 -40.379,-7.015 -40.109,-6.792C-38.707,-5.628 -37.105,-4.921 -35.402,-4.304C-34.396,-3.938 -33.385,-3.474 -32.373,-3.036C-32.39,-2.606 -32.413,-2.179 -32.445,-1.757C-37.663,-3.296 -41.91,-6.841 -46.382,-9.995M-44.111,-20.832C-46.344,-25.605 -44.272,-29.297 -43.452,-33.629C-36.786,-27.497 -33.035,-17.098 -32.419,-7.507C-33.208,-8.461 -34.164,-9.361 -35.194,-10.25C-38.93,-13.467 -41.943,-16.204 -44.111,-20.832M-38.335,-35.379C-35.526,-32.63 -33.614,-28.715 -32.041,-25.186C-28.977,-18.312 -28.386,-10.371 -30.193,-3.066C-30.263,-3.117 -30.32,-3.185 -30.393,-3.234C-30.508,-4.134 -30.798,-4.976 -31.229,-5.769C-31.282,-10.768 -32.738,-15.605 -34.686,-20.604C-36.481,-25.219 -38.821,-31.704 -43.31,-34.482C-43.264,-34.802 -43.225,-35.126 -43.2,-35.453C-43.151,-36.066 -43.218,-36.726 -43.433,-37.296C-44.394,-39.843 -38.947,-35.975 -38.335,-35.379M-31.495,-1.506C-31.508,-1.509 -31.522,-1.512 -31.536,-1.517C-31.528,-1.559 -31.522,-1.598 -31.516,-1.64C-31.506,-1.595 -31.502,-1.549 -31.495,-1.506M-20.371,-17.43C-20.083,-17.953 -19.811,-18.489 -19.525,-19.017C-19.382,-18.851 -19.07,-18.851 -19.046,-19.121C-19.021,-19.431 -19.002,-19.727 -18.991,-20.014C-18.099,-21.686 -17.227,-23.368 -16.377,-25.064C-16.31,-25.084 -16.248,-25.128 -16.208,-25.208C-15.689,-26.241 -15.09,-27.171 -14.438,-28.03C-17.204,-21.474 -20.23,-15.057 -24.26,-8.877C-25.142,-8.091 -25.959,-7.216 -26.672,-6.199C-26.752,-6.121 -26.832,-6.044 -26.914,-5.968C-24.67,-9.77 -22.487,-13.596 -20.371,-17.43M-27.216,-38.846C-28.301,-42.661 -28.721,-46.575 -28.993,-50.511C-28.275,-48.268 -27.439,-46.056 -26.537,-43.879C-23.898,-37.517 -19.711,-31.374 -19.151,-24.42C-19.238,-24.106 -19.336,-23.795 -19.439,-23.485C-19.667,-24.178 -19.981,-24.877 -20.417,-25.643C-22.955,-30.119 -25.771,-33.766 -27.216,-38.846M-30.463,-61.765C-30.421,-61.529 -30.388,-61.327 -30.37,-61.177C-30.284,-60.454 -30.229,-59.729 -30.165,-59.004C-30.347,-60.059 -30.496,-61.131 -30.614,-62.215C-30.566,-62.064 -30.515,-61.914 -30.463,-61.765M-24.408,-49.792C-20.455,-42.918 -17.238,-34.164 -18.758,-26.104C-19.378,-30.211 -21.106,-34.1 -22.895,-37.92C-25.505,-43.5 -27.787,-48.952 -29.252,-54.732C-29.344,-56.312 -29.443,-57.89 -29.576,-59.462C-28.15,-56.123 -26.222,-52.946 -24.408,-49.792M-13.572,-59.399C-12.673,-57.26 -11.891,-55.093 -11.205,-52.879C-10.078,-49.239 -10.142,-45.729 -10.631,-42.157C-10.687,-45.276 -11.297,-48.35 -12.066,-51.364C-12.117,-51.556 -12.292,-51.576 -12.429,-51.506C-12.773,-52.998 -13.104,-54.496 -13.352,-56.007C-13.256,-55.421 -14.02,-60.465 -13.572,-59.399M-8.584,-68.991C-9.065,-71.843 -9.445,-74.71 -9.802,-77.578C-10.132,-80.254 -9.727,-84.14 -10.748,-86.598C-7.046,-77.713 -3.647,-67.586 -4.729,-57.851C-4.791,-57.602 -4.857,-57.354 -4.922,-57.106C-5.076,-56.781 -5.233,-56.459 -5.374,-56.125C-5.426,-56.003 -5.344,-55.907 -5.245,-55.879C-5.418,-55.233 -5.594,-54.585 -5.779,-53.94C-6.632,-58.969 -7.736,-63.959 -8.584,-68.991M-2.109,-101.277C5.023,-91.282 3.391,-75.972 -2.084,-65.087C0.199,-76.595 0.865,-89.956 -2.109,-101.277M-11.388,-35.457C-12.054,-33.809 -12.718,-32.168 -13.393,-30.535C-13.645,-30.238 -13.894,-29.948 -14.145,-29.655C-13.19,-31.688 -12.276,-33.738 -11.395,-35.802C-11.406,-35.73 -11.406,-35.657 -11.418,-35.586C-11.427,-35.533 -11.41,-35.492 -11.388,-35.457M-48.513,26.414C-49.49,27.534 -50.48,28.645 -51.479,29.747C-50.531,28.591 -49.59,27.434 -48.665,26.257C-48.629,26.324 -48.577,26.377 -48.513,26.414M-21.121,12.741C-21.033,12.694 -16.894,10.175 -17.055,11.218C-17.359,13.207 -19.014,14.892 -20.335,16.285C-24.753,20.948 -30.992,24.068 -36.633,26.971C-42.795,30.143 -48.774,33.654 -54.808,37.066C-55.593,37.29 -56.347,37.578 -57.062,37.931C-56.84,37.702 -56.626,37.467 -56.407,37.239C-47.984,32.19 -39.076,27.188 -31.28,21.213C-31.051,21.038 -31.284,20.699 -31.531,20.845C-39.433,25.531 -47.636,30.365 -55.07,35.826C-54.731,35.466 -54.392,35.109 -54.057,34.746C-47.354,28.815 -40.915,23.58 -32.961,19.113C-29.053,16.917 -25.069,14.858 -21.121,12.741M-52.445,22.744C-53.349,20.386 -54.651,18.247 -55.476,15.844C-57.104,11.093 -55.819,7.072 -56.106,2.661C-55.645,9.712 -46.989,19.256 -50.47,25.999C-49.997,21.876 -52.042,17.304 -54.338,14.167C-54.522,13.916 -54.913,14.181 -54.738,14.441C-52.373,17.921 -51.288,21.825 -51.561,25.822C-51.721,24.853 -52.027,23.836 -52.445,22.744M-44.293,2.079C-44.187,4.967 -44.349,7.854 -44.606,10.729C-45.044,15.589 -46.395,20.152 -48.17,24.652C-48.354,24.886 -48.537,25.124 -48.722,25.359C-48.51,24.82 -48.327,24.27 -48.16,23.718C-46.426,19.04 -46.305,13.829 -45.408,8.966C-45.347,8.623 -45.869,8.519 -45.938,8.858C-46.19,10.11 -46.42,11.359 -46.646,12.608C-46.434,9.669 -46.164,6.741 -45.383,3.952C-44.15,-0.453 -44.388,-0.43 -44.293,2.079M-14.594,25.877C-16.912,34.788 -31.508,36.439 -39.126,36.474C-41.694,36.486 -44.754,36.226 -47.814,36.242C-47.514,36.1 -47.212,35.954 -46.913,35.817C-42.147,34.692 -37.226,34.283 -32.59,32.735C-32.268,32.625 -32.372,32.117 -32.712,32.148C-35.864,32.432 -39.105,33.033 -42.294,33.831C-33.346,30.236 -24.243,27.922 -14.594,25.877M7.145,-78.413C8.059,-80.035 12.942,-86.093 12.836,-87.323C13.104,-84.23 11.819,-81.197 10.432,-78.527C7.754,-73.378 3.642,-69.256 0.048,-64.765C2.375,-69.334 4.624,-73.937 7.145,-78.413M12.555,-67.513C14.121,-68.658 20.657,-71.554 21.255,-73.157C19.898,-69.514 16.21,-66.568 13.315,-64.216C9.16,-60.842 4.687,-57.82 0.252,-54.835C-1.209,-53.853 -2.717,-52.785 -4.042,-51.562C1.008,-57.54 6.191,-62.866 12.555,-67.513M-10.304,-38.13C-10.456,-37.754 -10.61,-37.375 -10.764,-36.998C-10.743,-37.139 -10.729,-37.28 -10.711,-37.421C-9.688,-39.889 -8.702,-42.371 -7.797,-44.882C-7.703,-44.843 -7.579,-44.87 -7.537,-44.998C-5.096,-52.164 4.126,-56.382 9.977,-60.623C14.974,-64.248 20.216,-68.134 22.525,-74.069C22.688,-74.49 22.276,-74.845 21.885,-74.626C11.804,-69.017 1.241,-61.669 -4.946,-51.69C-5.142,-51.373 -4.767,-51.067 -4.473,-51.153C-5.25,-50.391 -5.947,-49.567 -6.514,-48.665C-6.226,-49.535 -5.931,-50.402 -5.656,-51.277C-5.533,-51.281 -5.418,-51.339 -5.369,-51.474C-4.718,-53.254 -4.295,-55.06 -4.026,-56.878C-3.856,-57.505 -3.715,-58.141 -3.553,-58.773C2.448,-68.648 14.648,-76.147 13.613,-88.771C13.582,-89.131 13.063,-89.37 12.824,-89.034C6.995,-80.814 1.521,-71.896 -2.019,-62.427C-2.069,-62.292 -2.045,-62.171 -1.987,-62.076C-2.401,-61.49 -2.795,-60.89 -3.178,-60.281C-3.01,-60.975 -2.817,-61.664 -2.659,-62.36C-2.58,-62.71 -2.508,-63.068 -2.433,-63.422C4.719,-73.979 7.903,-100.427 -6.223,-106.288C-6.482,-106.398 -6.755,-106.048 -6.508,-105.859C-5.312,-104.935 -4.246,-103.917 -3.302,-102.817C-3.324,-102.745 -3.332,-102.67 -3.309,-102.581C0.025,-90.754 -0.88,-76.894 -3.231,-64.686C-3.801,-73.534 -5.851,-82.648 -1.752,-90.929C-1.584,-91.266 -2.065,-91.478 -2.259,-91.18C-7.519,-83.093 -4.167,-72.172 -3.511,-63.254C-3.572,-62.946 -3.639,-62.642 -3.703,-62.336C-3.924,-71.258 -7.482,-80.29 -10.718,-88.349C-10.866,-88.719 -11.413,-88.61 -11.401,-88.208C-10.992,-76.484 -9.158,-64.375 -6.04,-53.045C-7.104,-49.409 -8.325,-45.817 -9.68,-42.272C-8.646,-48.845 -10.855,-55.066 -13.545,-61.432C-13.734,-61.876 -14.311,-61.717 -14.335,-61.268C-14.748,-53.552 -11.187,-46.357 -11.193,-38.765C-11.23,-38.568 -11.265,-38.374 -11.304,-38.178C-13.483,-32.892 -15.927,-27.706 -18.521,-22.627C-18.519,-22.827 -18.517,-23.03 -18.52,-23.23C-12.676,-35.032 -24.162,-49.775 -28.947,-59.637C-29.268,-60.297 -29.541,-60.972 -29.793,-61.656C-30.078,-64.166 -30.5,-66.655 -31.195,-69.106C-31.288,-69.433 -31.755,-69.299 -31.755,-68.99C-31.748,-67.149 -31.483,-65.379 -31.039,-63.664C-31.21,-63.677 -31.391,-63.576 -31.386,-63.35C-31.283,-59.837 -30.669,-56.401 -29.748,-53.04C-29.63,-50.887 -29.514,-48.734 -29.314,-46.591C-28.94,-42.567 -27.977,-38.649 -26.66,-34.837C-25.121,-30.377 -20.992,-26.816 -19.865,-22.251C-19.902,-22.111 -19.869,-21.988 -19.79,-21.905C-19.697,-21.462 -19.628,-21.009 -19.596,-20.544C-20.396,-19.01 -21.208,-17.484 -22.03,-15.97C-24.129,-12.108 -26.309,-8.267 -28.562,-4.456C-28.664,-4.364 -28.768,-4.269 -28.87,-4.18C-29.012,-4.058 -29.015,-3.908 -28.96,-3.786C-29.173,-3.43 -29.384,-3.075 -29.597,-2.717C-27.56,-10.197 -28.21,-18.327 -31.142,-25.504C-33.318,-30.832 -37.714,-39.738 -44.59,-39.366C-44.909,-39.349 -45.136,-39.006 -45.023,-38.707C-44.511,-37.349 -44.368,-36.099 -44.427,-34.895C-44.523,-34.804 -44.557,-34.658 -44.448,-34.546C-44.67,-31.831 -45.879,-29.332 -46.242,-26.362C-46.543,-23.883 -45.359,-20.688 -44.155,-18.629C-42.436,-15.688 -40.574,-13.387 -37.968,-11.235C-35.863,-9.5 -33.679,-7.841 -32.383,-5.727C-36.896,-10.468 -48.474,-11.042 -52.133,-15.885C-52.447,-16.303 -53.075,-15.874 -52.802,-15.428C-52.695,-15.251 -52.567,-15.096 -52.453,-14.925C-52.44,-14.887 -52.404,-14.838 -52.355,-14.782C-49.719,-10.914 -45.638,-8.524 -41.822,-5.914C-38.568,-3.685 -36.031,-1.925 -32.521,-0.917C-32.629,0.182 -32.767,1.258 -32.973,2.285C-33.003,2.432 -32.923,2.517 -32.823,2.555C-32.833,2.57 -32.84,2.582 -32.85,2.596C-33.38,2.957 -33.897,3.395 -34.398,3.942C-34.663,4.229 -34.426,4.576 -34.128,4.624C-37.9,10.551 -41.888,16.354 -46.113,21.97C-43.418,14.595 -43.09,6.377 -43.561,-1.374C-43.586,-1.795 -44.25,-1.971 -44.41,-1.541C-45.961,2.614 -47.195,6.726 -47.742,11.145C-48.19,14.783 -48.023,18.34 -48.572,21.861C-49.443,15.314 -55.713,6.885 -55.372,1.932C-55.348,1.579 -55.86,1.315 -56.019,1.712C-57.387,5.221 -57.805,8.826 -56.974,12.553C-55.951,17.133 -51.546,23.226 -52.23,28.245C-52.422,28.416 -52.613,28.588 -52.826,28.754C-53.146,29.003 -52.909,29.607 -52.51,29.454C-52.674,29.96 -52.9,30.452 -53.203,30.926C-55.389,33.552 -57.643,36.118 -59.953,38.627C-65.57,44.258 -71.436,49.707 -77.465,55.12C-77.544,55.191 -77.529,55.28 -77.482,55.354C-77.698,55.534 -77.905,55.72 -78.122,55.896C-78.256,56.006 -78.105,56.227 -77.97,56.121C-77.55,55.788 -77.146,55.437 -76.729,55.1C-71.083,51.008 -65.7,46.437 -60.617,41.497C-60.578,41.484 -60.537,41.479 -60.501,41.442C-59.945,40.842 -59.333,40.344 -58.691,39.9C-57.571,39.361 -56.458,38.805 -55.342,38.251C-53.79,37.743 -52.126,37.468 -50.412,37.337C-50.331,37.375 -50.234,37.381 -50.134,37.329C-50.117,37.323 -50.104,37.318 -50.088,37.309C-45.983,37.039 -41.644,37.538 -38,37.528C-32.36,37.511 -25.776,36.362 -20.738,33.756C-18.616,32.66 -16.258,31.301 -14.943,29.208C-14.29,28.168 -13.883,27.252 -13.53,26.092C-13.477,25.914 -13.528,25.781 -13.624,25.665C-13.407,25.605 -13.257,25.333 -13.28,25.123C-13.292,25.025 -13.301,24.925 -13.311,24.827C-13.374,24.248 -14.283,24.142 -14.366,24.76C-14.392,24.952 -14.434,25.136 -14.469,25.32C-16.63,25.023 -21.728,26.133 -22.122,26.21C-31.287,27.974 -40.99,31.041 -49.116,35.84C-49.61,36.008 -50.1,36.177 -50.586,36.352C-50.984,36.38 -51.378,36.424 -51.771,36.472C-44.612,32.818 -37.537,28.93 -30.557,25.015C-25.13,21.973 -15.688,16.858 -15.883,9.504C-15.893,9.071 -16.38,8.918 -16.708,9.105C-26.001,14.332 -37.5,19.023 -46.504,25.96C-40.642,18.696 -35.338,11.021 -30.676,3.201C-30.527,2.953 -30.927,2.764 -31.076,3.003C-36.021,10.995 -41.549,18.325 -47.504,25.248C-47.306,24.843 -47.116,24.434 -46.938,24.022C-41.902,17.46 -37.199,10.627 -32.777,3.639C-32.396,3.343 -32.009,3.09 -31.617,2.882C-31.495,2.936 -31.352,2.917 -31.243,2.784C-31.203,2.73 -31.158,2.686 -31.114,2.634C-28.372,1.424 -25.43,1.954 -22.29,1.126C-19.566,0.409 -16.941,-0.608 -14.346,-1.696C-9.966,-3.531 -5.479,-6.171 -3.746,-10.805C-3.606,-11.175 -4.006,-11.662 -4.383,-11.36C-11.671,-5.536 -21.742,-6.105 -28.854,-0.555C-29.605,-0.167 -30.294,0.32 -30.834,0.944C-30.763,0.769 -30.694,0.595 -30.627,0.42C-29.028,-1.361 -27.77,-3.286 -26.21,-5.033C-24.755,-6.039 -23.384,-7.212 -22.053,-8.464C-19.468,-10.015 -16.536,-11.067 -13.833,-12.317C-7.637,-15.187 -1.277,-17.615 4.675,-20.995C5.008,-21.184 4.974,-21.777 4.61,-21.914C-5.935,-25.928 -14.377,-18.364 -21.846,-10.959C-19.514,-14.011 -17.553,-17.414 -15.857,-21.014C-15.797,-21.02 -15.737,-21.044 -15.696,-21.114C-12.144,-27.198 -4.685,-30.331 2.196,-29.494C2.614,-29.443 2.961,-29.976 2.58,-30.276C-2.419,-34.246 -8.513,-32.85 -12.629,-28.768C-12.431,-29.294 -12.241,-29.822 -12.05,-30.351C-11.582,-30.817 -11.117,-31.281 -10.659,-31.741C-10.445,-31.901 -10.222,-32.052 -10.001,-32.205C-10.184,-31.89 -10.374,-31.584 -10.529,-31.241C-10.653,-30.968 -10.243,-30.763 -10.113,-31.035C-9.789,-31.713 -9.394,-32.328 -8.952,-32.895C1.013,-39.081 15.861,-39.102 21.487,-51.308C21.65,-51.661 21.294,-52.202 20.881,-51.994C14.263,-48.654 6.988,-46.965 0.479,-43.383C-3.954,-40.945 -7.621,-37.167 -11.012,-33.292C-10.228,-35.57 -9.479,-37.84 -8.743,-40.071C-8.061,-41.062 -7.225,-41.94 -6.264,-42.732C-6.235,-42.58 -6.089,-42.452 -5.942,-42.582C-5.388,-43.076 -4.859,-43.603 -4.344,-44.146C-0.433,-46.778 4.321,-48.831 6.595,-52.754C6.706,-52.944 6.524,-53.178 6.32,-53.163C0.732,-52.772 -4.176,-49.15 -7.258,-44.494C-7.02,-45.188 -6.781,-45.879 -6.54,-46.556C-6.495,-46.682 -6.675,-46.779 -6.732,-46.65C-7.509,-44.884 -8.253,-43.122 -8.981,-41.363C-9.047,-41.213 -9.121,-41.065 -9.186,-40.913C-9.194,-40.893 -9.185,-40.877 -9.188,-40.857C-9.426,-40.284 -9.661,-39.711 -9.895,-39.14C-10.049,-38.815 -10.188,-38.479 -10.304,-38.13" style="fill:white;fill-rule:nonzero;"/>
            </g>
        </g>
    </g>
</svg>
