<?xml version="1.0" encoding="UTF-8" standalone="no"?>
<!DOCTYPE svg PUBLIC "-//W3C//DTD SVG 1.1//EN" "http://www.w3.org/Graphics/SVG/1.1/DTD/svg11.dtd">
<svg width="100%" height="100%" viewBox="0 0 442 467" version="1.1" xmlns="http://www.w3.org/2000/svg" xmlns:xlink="http://www.w3.org/1999/xlink" xml:space="preserve" xmlns:serif="http://www.serif.com/" style="fill-rule:evenodd;clip-rule:evenodd;stroke-linejoin:round;stroke-miterlimit:2;">
    <g transform="matrix(1,0,0,1,-1461.657783,-1405.341431)">
        <g transform="matrix(4.166667,0,0,4.166667,0,0)">
            <g transform="matrix(1,0,0,1,453.1025,411.388)">
                <path d="M0,-35.721C-8.255,-27.367 -22.015,-28.576 -31.715,-23.014C-31.582,-23.356 -31.449,-23.698 -31.32,-24.043C-30.953,-24.522 -30.561,-24.968 -30.157,-25.398C-26.988,-27.575 -21.882,-28.427 -19.073,-29.492C-18.866,-29.571 -18.946,-29.866 -19.166,-29.824C-21.48,-29.377 -25.35,-28.549 -28.445,-27C-25.013,-29.844 -20.736,-31.488 -16.462,-33.158C-13.037,-34.497 -9.622,-35.866 -6.161,-37.104C-3.683,-37.991 4.869,-40.647 0,-35.721M-26.259,-11.059C-21.183,-11.783 -16.124,-12.586 -11.103,-13.617C-12.199,-12.478 -13.102,-11.217 -14.134,-9.936C-17.041,-6.326 -22.227,-5.697 -26.492,-5.354C-29.19,-5.138 -31.893,-5.062 -34.581,-5.424C-35.565,-5.556 -36.463,-5.876 -37.355,-6.198C-34.013,-5.977 -30.616,-6.102 -27.533,-7.486C-27.327,-7.578 -27.48,-7.877 -27.681,-7.834C-31.441,-7.021 -35.032,-6.533 -38.814,-6.692C-39.098,-6.776 -39.385,-6.848 -39.677,-6.907C-35.554,-9.612 -31.187,-10.357 -26.259,-11.059M-48.282,-21.575C-48.862,-22.646 -49.336,-23.761 -49.704,-24.918C-49.998,-25.744 -50.688,-27.173 -51.076,-28.229C-50.297,-26.37 -48.223,-25.021 -46.687,-23.963C-42.768,-21.267 -39.131,-18.039 -39.427,-13.493C-40.117,-15.366 -41.525,-17.027 -42.646,-18.709C-42.773,-18.901 -43.066,-18.733 -42.956,-18.528C-42.293,-17.301 -41.563,-16.12 -40.874,-14.909C-40.242,-13.801 -39.985,-12.681 -39.8,-11.503C-39.94,-11.034 -40.115,-10.554 -40.34,-10.059C-40.906,-11.948 -41.915,-13.497 -43.357,-15.181C-45.125,-17.243 -46.896,-19.224 -48.282,-21.575M-51.086,-28.256C-51.197,-28.566 -51.287,-28.848 -51.326,-29.064C-51.275,-28.784 -51.191,-28.515 -51.086,-28.256M-32.396,-24.136C-32.391,-24.137 -32.387,-24.141 -32.381,-24.143C-32.385,-24.134 -32.388,-24.126 -32.391,-24.118L-32.396,-24.136ZM-39.646,-32.569C-44.271,-36.176 -48.997,-39.902 -52.839,-44.352C-57.255,-49.464 -51.807,-45.336 -50.228,-44.377C-47.045,-42.447 -44.097,-40.13 -41.22,-37.78C-38.687,-35.712 -36.084,-33.694 -34.804,-30.584C-34.318,-29.407 -34.005,-28.151 -33.681,-26.901C-35.183,-29.16 -37.492,-30.89 -39.646,-32.569M-41.828,-50.391C-43.866,-51.764 -45.904,-53.438 -46.875,-55.759C-47.094,-56.283 -47.708,-59.215 -46.666,-58.262C-45.479,-57.176 -44.15,-56.243 -42.833,-55.327C-40.225,-53.52 -37.436,-52.021 -34.919,-50.078C-31.952,-47.789 -30.552,-44.887 -29.284,-41.618C-32.092,-45.551 -38.965,-48.464 -41.828,-50.391M-28.295,-39.672C-28.302,-39.697 -28.309,-39.72 -28.316,-39.745C-28.307,-39.751 -28.294,-39.752 -28.286,-39.759C-28.289,-39.73 -28.291,-39.701 -28.295,-39.672M-19.061,10.155C-16.121,12.56 -21.737,11.817 -23.158,11.785C-26.43,11.712 -29.693,11.038 -32.901,10.446C-37.39,9.616 -41.6,7.792 -44.999,4.842C-41.074,5.65 -36.315,4.713 -33.1,7.632C-32.937,7.78 -32.696,7.543 -32.857,7.388C-34.752,5.552 -36.91,4.934 -39.488,4.56C-41.651,4.248 -43.666,3.965 -45.672,3.453C-36.335,3.062 -26.496,4.074 -19.061,10.155M-56.998,-21.354C-56.956,-19.78 -52.852,-14.852 -51.377,-12.536C-48.481,-7.991 -47.509,-3.675 -48.947,1.406C-49.056,1.061 -49.177,0.724 -49.316,0.398C-49.228,0.385 -49.151,0.324 -49.162,0.209C-49.491,-3.596 -51.769,-7.018 -53.356,-10.397C-53.455,-10.612 -53.83,-10.454 -53.74,-10.235C-52.45,-7.11 -51.123,-4.06 -49.979,-0.892C-50.86,-2.396 -52.018,-3.762 -53.12,-5.193C-56.597,-9.703 -56.854,-15.885 -56.998,-21.354M-59.022,13.378C-59.045,13.362 -59.067,13.347 -59.089,13.332C-59.062,13.308 -59.032,13.287 -59.003,13.264C-59.015,13.301 -59.021,13.34 -59.022,13.378M-58.302,13.871C-50.415,14.506 -43.609,18.996 -37.083,23.191C-45.509,23.296 -51.635,18.477 -58.302,13.871M-63.381,-2.784C-63.371,-3.649 -63.377,-8.304 -61.984,-5.944C-58.998,-0.88 -59,6.607 -60.063,12.23C-61.795,8.831 -62.823,5.461 -63.26,1.576C-63.423,0.131 -63.398,-1.332 -63.381,-2.784M-51.632,30.668C-51.463,30.804 -56.485,31.949 -57.217,31.944C-59.862,31.925 -62.456,30.714 -64.721,29.49C-66.732,28.403 -68.504,26.946 -70.138,25.342C-67.491,26.81 -64.17,27.551 -61.858,29.215C-61.677,29.345 -61.513,29.049 -61.686,28.918C-64.819,26.558 -68.513,25.555 -71.659,23.316C-64.49,24.261 -57.407,26.042 -51.632,30.668M-73.534,21.667C-73.532,21.665 -73.53,21.665 -73.528,21.664C-73.474,21.627 -73.433,21.58 -73.38,21.542C-73.327,21.618 -73.277,21.694 -73.224,21.77C-73.271,21.8 -73.32,21.828 -73.369,21.858C-73.424,21.795 -73.479,21.73 -73.534,21.667M-74.106,9.412C-73.609,7.452 -72.693,5.626 -71.728,3.864C-71.229,2.955 -70.573,0.595 -70.508,2.394C-70.324,7.619 -69.57,13.694 -72.154,18.366C-71.873,15.941 -71.746,13.443 -72.34,11.188C-72.403,10.948 -72.816,10.992 -72.782,11.249C-72.415,14.092 -72.977,16.897 -73.026,19.71C-73.16,19.887 -73.299,20.064 -73.446,20.237C-75.041,16.771 -75.086,13.275 -74.106,9.412M-70.672,36.698C-74.927,37.088 -80.109,35.093 -83.764,32.285C-82.076,33.047 -80.1,33.284 -78.472,34.143C-78.263,34.253 -78.088,33.953 -78.287,33.825C-79.988,32.733 -82.049,31.986 -84.018,31.373C-79.124,32.017 -73.182,32.258 -70.672,36.698M-82.255,11.434C-82.491,11.664 -82.43,15.623 -82.569,16.249C-82.959,17.997 -83.675,19.703 -84.389,21.335C-84.983,22.692 -85.702,23.98 -86.438,25.256C-86.271,23.449 -86.266,21.581 -86.264,19.826C-86.263,19.56 -86.67,19.562 -86.677,19.827C-86.724,22.05 -87.396,24.404 -87.238,26.64C-87.49,27.074 -87.733,27.513 -87.977,27.952C-88.816,21.948 -86.631,15.67 -82.255,11.434M-17.464,-53.5C-14.853,-55.762 -12.094,-58.466 -9.193,-60.312C-8.353,-60.848 -9.35,-55.407 -9.494,-54.906C-10.356,-51.905 -12.251,-49.629 -14.509,-47.54C-17.885,-44.417 -22.04,-42.482 -25.768,-39.903C-25.714,-40.075 -25.66,-40.246 -25.605,-40.416C-22.412,-44.036 -18.334,-46.917 -15.814,-51.07C-15.699,-51.257 -15.967,-51.467 -16.12,-51.304C-19.153,-48.061 -22.427,-44.961 -25.24,-41.511C-23.605,-46.236 -21.463,-50.039 -17.464,-53.5M3.098,-40.177C-4.945,-39.484 -12.498,-35.979 -19.92,-33.001C-23.202,-31.682 -27.466,-29.985 -30.22,-27.227C-29.145,-30.595 -28.339,-34.031 -27.846,-37.489C-21.936,-42.538 -14.433,-44.514 -9.871,-51.325C-8.748,-53.004 -6.005,-59.95 -8.43,-61.365C-10.469,-62.554 -15.703,-56.333 -17.151,-55.287C-22.088,-51.721 -26.247,-46.02 -26.575,-39.791C-26.825,-39.451 -27.082,-39.117 -27.32,-38.769C-27.455,-38.663 -27.58,-38.546 -27.713,-38.439C-26.84,-45.414 -27.283,-52.469 -29.519,-59.25C-29.586,-59.455 -29.905,-59.369 -29.842,-59.16C-28.907,-56.073 -28.339,-52.963 -28.079,-49.855C-28.732,-51.255 -29.79,-52.408 -30.954,-53.648C-35.338,-58.322 -35.136,-64.738 -33.896,-70.598C-33.514,-72.411 -34.036,-72.865 -33.227,-71.075C-32.514,-69.494 -31.121,-68.055 -30.029,-66.738C-25.728,-61.546 -25.108,-55.348 -27.239,-49.02C-27.34,-48.72 -26.887,-48.541 -26.735,-48.809C-24.496,-52.799 -24.899,-57.198 -25.807,-61.537C-26.808,-66.318 -31.897,-69.008 -33.135,-73.748C-33.262,-74.237 -33.963,-74.214 -34.099,-73.747C-35.413,-69.225 -36.115,-64.796 -35.349,-60.112C-34.467,-54.726 -29.36,-52.366 -27.962,-47.409C-27.957,-47.391 -27.939,-47.386 -27.931,-47.37C-27.857,-44.946 -27.973,-42.524 -28.248,-40.117C-29.206,-50.473 -40.368,-53.587 -46.962,-59.731C-47.209,-59.961 -47.604,-59.859 -47.702,-59.534C-51.262,-47.766 -28.198,-47.377 -28.81,-37.513C-28.837,-37.489 -28.865,-37.468 -28.892,-37.444C-29.053,-37.297 -29.005,-37.106 -28.88,-36.993C-28.9,-36.847 -28.906,-36.708 -28.937,-36.558C-28.965,-36.424 -28.904,-36.337 -28.825,-36.279C-29.557,-32.341 -30.701,-28.457 -32.172,-24.673C-33.699,-29.376 -34.324,-32.857 -38.138,-36.274C-43.407,-41 -49.265,-45.114 -55.593,-48.282C-55.958,-48.464 -56.398,-48.084 -56.169,-47.703C-53.449,-43.176 -49.775,-39.766 -45.731,-36.419C-41.286,-32.74 -35.104,-29.186 -32.786,-23.702C-32.752,-23.619 -32.688,-23.576 -32.619,-23.555C-34.387,-19.219 -36.565,-15.023 -39.019,-11.037C-39.016,-11.117 -39.008,-11.2 -39.008,-11.28C-38.171,-14.254 -38.772,-17.475 -40.512,-20.117C-43.226,-24.241 -49.69,-24.806 -50.765,-30.19C-50.848,-30.606 -51.552,-30.512 -51.509,-30.086C-51.145,-26.432 -50.297,-23.173 -48.423,-19.999C-45.948,-15.812 -42.08,-13.257 -40.582,-8.573C-42.375,-5.846 -44.284,-3.229 -46.266,-0.748C-46.846,-0.022 -47.448,0.673 -48.048,1.369C-44.658,-7.896 -53.051,-15.47 -57.075,-23.222C-57.289,-23.633 -57.932,-23.432 -57.929,-22.989C-57.89,-17.914 -57.551,-13.047 -55.926,-8.211C-54.542,-4.09 -50.66,-1.48 -49.219,2.693C-52.245,6.031 -55.521,9.039 -59,11.833C-57.855,5.084 -58.277,-3.617 -62.977,-8.894C-63.195,-9.14 -63.708,-9.033 -63.762,-8.686C-64.857,-1.362 -64.604,6.612 -60.419,12.944C-62.988,14.938 -65.649,16.84 -68.402,18.676C-69.779,19.598 -71.163,20.492 -72.552,21.361C-72.524,21.17 -72.498,20.977 -72.472,20.783C-67.692,16.082 -69.648,6.615 -69.714,0.736C-69.718,0.285 -70.259,0.207 -70.496,0.525C-74.721,6.177 -77.658,14.314 -73.903,20.745C-73.966,20.81 -74.02,20.881 -74.085,20.946C-74.208,21.068 -74.228,21.224 -74.19,21.366C-74.256,21.444 -74.29,21.545 -74.225,21.643C-74.111,21.817 -73.991,21.991 -73.872,22.165C-78.368,24.923 -82.941,27.409 -87.678,29.582C-87.695,29.508 -87.707,29.433 -87.724,29.359C-84.011,24.285 -80.464,16.73 -81.429,10.417C-81.483,10.063 -81.932,10.048 -82.149,10.227C-87.231,14.415 -90.414,22.424 -88.513,28.944C-88.593,29.096 -88.682,29.244 -88.759,29.399C-88.903,29.682 -88.737,29.915 -88.516,29.974C-92.891,31.939 -97.408,33.639 -102.142,35.03C-102.428,35.113 -102.305,35.523 -102.019,35.469C-96.84,34.526 -91.842,32.758 -87.011,30.536C-87.049,30.689 -86.991,30.853 -86.782,30.902C-86.564,30.952 -86.335,30.995 -86.107,31.04C-82.835,35.613 -74.935,38.516 -69.676,37.669C-69.294,37.608 -69.227,37.156 -69.353,36.869C-71.699,31.497 -80.559,29.714 -86.053,30.183C-86.071,30.162 -86.093,30.141 -86.111,30.121C-81.688,28.025 -77.411,25.562 -73.274,23.004C-68.012,30.103 -58.929,35.443 -50.273,31.435C-49.982,31.3 -49.948,30.849 -50.173,30.643C-55.38,25.875 -64.964,21.691 -72.124,22.7C-72.216,22.714 -72.271,22.758 -72.302,22.815C-72.397,22.737 -72.494,22.657 -72.59,22.577C-70.996,21.585 -69.422,20.581 -67.871,19.581C-65.045,17.758 -62.356,15.855 -59.771,13.861C-59.651,13.952 -59.497,13.928 -59.407,13.84C-52.557,19.732 -44.799,24.957 -35.392,24.173C-34.868,24.129 -34.662,23.479 -35.124,23.182C-42.074,18.723 -50.06,13.17 -58.626,13.006C-58.648,13.006 -58.664,13.012 -58.684,13.015C-55.056,10.137 -51.661,7.038 -48.493,3.612C-48.365,3.602 -48.237,3.594 -48.107,3.586C-47.727,3.852 -47.324,4.066 -46.904,4.25C-43.613,7.732 -39.016,10.211 -34.391,11.122C-28.68,12.248 -22.454,13.758 -16.707,12.123C-16.333,12.017 -16.223,11.55 -16.485,11.275C-24.249,3.095 -36.221,1.725 -46.984,2.861C-47.122,2.704 -47.262,2.549 -47.396,2.388C-46.101,0.932 -44.83,-0.561 -43.61,-2.141C-42.613,-3.435 -41.643,-4.774 -40.7,-6.146C-38.223,-5.742 -36.008,-4.456 -33.49,-4.291C-30.172,-4.075 -26.879,-4.296 -23.577,-4.642C-20.736,-4.94 -18.125,-5.87 -15.652,-7.246C-12.91,-8.773 -11.515,-12.185 -9.046,-14.065C-8.573,-14.425 -8.837,-15.175 -9.459,-15.041C-15.68,-13.702 -21.967,-12.742 -28.261,-11.816C-32.408,-11.205 -36.343,-10.271 -39.618,-7.761C-36.702,-12.218 -34.122,-17.034 -32.089,-22.063C-28.043,-24.517 -23.352,-25.258 -18.809,-26.317C-15.394,-27.114 -12.046,-28.393 -8.771,-29.639C-3.813,-31.526 1.789,-34.2 3.542,-39.596C3.629,-39.865 3.39,-40.202 3.098,-40.177" style="fill:white;fill-rule:nonzero;"/>
            </g>
        </g>
    </g>
</svg>
