<?xml version="1.0" encoding="UTF-8" standalone="no"?>
<!DOCTYPE svg PUBLIC "-//W3C//DTD SVG 1.1//EN" "http://www.w3.org/Graphics/SVG/1.1/DTD/svg11.dtd">
<svg width="100%" height="100%" viewBox="0 0 137 596" version="1.1" xmlns="http://www.w3.org/2000/svg" xmlns:xlink="http://www.w3.org/1999/xlink" xml:space="preserve" xmlns:serif="http://www.serif.com/" style="fill-rule:evenodd;clip-rule:evenodd;stroke-linejoin:round;stroke-miterlimit:2;">
    <g transform="matrix(1,0,0,1,-497.686437,-463.949717)">
        <g transform="matrix(4.166667,0,0,4.166667,0,0)">
            <g transform="matrix(1,0,0,1,137.7168,164.0659)">
                <path d="M0,37.582C1.347,35.141 3.349,33.143 5.418,31.278C4.135,34.947 3.236,38.912 0.419,41.693C-0.621,42.723 -1.652,43.662 -2.289,44.733C-1.752,42.279 -1.29,39.92 0,37.582M-16.713,22.078C-17.542,19.545 -16.903,20.991 -15.923,22.158C-14.469,23.89 -12.922,25.551 -11.447,27.269C-8.371,30.849 -6.158,34.415 -5.148,38.92C-5.253,38.805 -5.367,38.696 -5.478,38.583C-5.478,38.578 -5.474,38.575 -5.474,38.569C-5.807,35.865 -7.967,33.611 -9.577,31.545C-9.709,31.376 -9.999,31.584 -9.885,31.766C-8.636,33.772 -7.45,35.745 -6.311,37.793C-6.611,37.53 -6.919,37.267 -7.243,37.003C-12.267,32.909 -14.708,28.189 -16.713,22.078M-12.666,-15.224C-12.708,-15.408 -12.764,-15.582 -12.828,-15.745L-12.827,-15.743C-11.759,-14.321 -10.229,-13.16 -8.922,-11.967C-6.649,-9.893 -5.442,-7.602 -4.706,-5.098C-5.374,-6.686 -6.35,-7.994 -7.633,-8.389C-7.818,-8.447 -8.006,-8.195 -7.845,-8.051C-5.525,-5.984 -5.293,-3.241 -4.732,-0.501C-5.125,-1.009 -5.585,-1.504 -6.128,-2.02C-10.031,-5.731 -11.499,-10.074 -12.666,-15.224M11.035,1.654C11.604,2.191 11.584,2.855 10.975,3.646C10.643,4.797 9.875,5.824 9.184,6.781C7.996,8.429 6.411,9.837 4.95,11.24C4.397,11.771 3.824,12.302 3.261,12.846C5.394,8.783 7.744,5.074 11.035,1.654M6.139,16.482C8.052,16.189 9.974,16.166 11.876,15.911C8.607,18.813 3.362,18.362 -0.717,19.934C1.464,18.121 3.176,16.938 6.139,16.482M6.4,62.332C6.531,61.99 8.367,57.661 8.766,58.996C10.644,65.286 6.434,69.824 4.43,75.142C4.42,74.933 4.409,74.722 4.402,74.514C5.78,72.08 6.557,69.139 6.96,66.41C7.015,66.038 6.45,65.969 6.334,66.298C5.612,68.35 4.978,70.494 4.39,72.623C4.417,70.914 4.559,69.198 4.896,67.402C5.223,65.665 5.768,63.98 6.4,62.332M-16.975,59.094C-14.033,58.83 -11.266,59.522 -8.641,60.937C-6.893,61.879 -5.665,63.324 -4.277,64.618C-5.414,64.209 -6.601,63.938 -7.915,63.725C-11.746,63.098 -14.629,62.184 -16.975,59.094M-11.073,54.055C-11.691,52.842 -12.172,51.575 -12.52,50.254C-13.32,49.179 -13.208,49.196 -12.186,50.302C-10.458,51.803 -9.153,53.769 -8.009,55.724C-6.687,57.983 -5.619,60.349 -4.366,62.628C-4.542,62.478 -4.711,62.32 -4.883,62.167C-5.062,61.999 -5.242,61.832 -5.435,61.673C-7.729,59.492 -9.506,56.979 -11.073,54.055M-5.351,-25.385C-9.379,-27.653 -11.417,-33.204 -12.637,-37.727C-8.555,-33.562 -3.451,-29.653 -1.936,-23.97C-2.827,-26.225 -4.854,-28.137 -6.785,-29.261C-6.985,-29.378 -7.248,-29.098 -7.056,-28.936C-5.851,-27.914 -4.677,-26.52 -3.864,-25.163C-3.697,-24.883 -3.559,-24.593 -3.43,-24.3C-4.022,-24.659 -4.672,-25.001 -5.351,-25.385M-2.148,-38.684C-2.909,-41.696 -3.815,-44.627 -4.132,-47.732C-3.729,-46.334 -3.334,-44.931 -2.963,-43.524C-2.535,-41.895 -2.299,-40.29 -2.148,-38.684M5.645,-43.375C5.752,-40.062 5.666,-36.814 3.602,-33.958C2.55,-32.503 1.289,-31.329 0.248,-29.983C0.655,-31.79 1.127,-33.57 1.845,-35.345C2.956,-38.086 4.36,-40.705 5.645,-43.375M3.535,-18.437C4.674,-20.309 5.941,-22.072 7.402,-23.706C7.971,-24.341 8.61,-24.897 9.262,-25.443C11.31,-27.164 10.507,-25.184 10.242,-23.748C9.04,-17.222 1.644,-14.926 -1.328,-9.558C-1.306,-9.722 -1.285,-9.887 -1.264,-10.052C-0.948,-10.542 -0.643,-11.042 -0.347,-11.544C2.307,-13.729 4.744,-16.804 6.185,-19.726C6.258,-19.876 6.065,-20.081 5.939,-19.929C4.664,-18.398 3.409,-16.851 2.052,-15.39C1.86,-15.182 1.658,-14.982 1.461,-14.779C2.133,-16.009 2.806,-17.241 3.535,-18.437M-1.516,-8.144C-1.441,-8.157 -1.37,-8.19 -1.318,-8.253C3.296,-14.005 12.618,-18.407 11.327,-27.017C11.289,-27.269 10.982,-27.376 10.773,-27.27C5.698,-24.691 1.72,-18.888 -0.886,-13.304C-0.432,-17.661 -0.207,-22.054 -0.51,-26.396C-0.417,-26.843 -0.324,-27.287 -0.233,-27.73C1.377,-30.446 4.314,-32.24 5.522,-35.141C6.931,-38.528 6.733,-41.916 6.607,-45.516C6.585,-46.124 5.826,-46.24 5.587,-45.697C3.532,-41 0.005,-35.765 -0.955,-30.415C-1.056,-31.069 -1.172,-31.722 -1.302,-32.372C0.543,-38.757 -2.438,-46.157 -4.144,-52.248C-4.337,-52.94 -5.288,-52.837 -5.372,-52.141C-6.116,-45.943 -3.917,-39.862 -2.102,-33.986C-2.212,-33.921 -2.291,-33.8 -2.261,-33.635C-1.804,-30.99 -1.545,-28.356 -1.433,-25.727C-3.239,-31.334 -9.594,-35.696 -13.222,-39.764C-13.544,-40.126 -14.166,-39.791 -14.053,-39.323C-13.112,-35.45 -11.708,-31.723 -9.63,-28.311C-8.024,-25.675 -4.792,-24.544 -2.74,-22.526C-2.527,-21.977 -2.293,-21.439 -1.971,-20.94C-1.856,-20.764 -1.631,-20.786 -1.541,-20.943C-1.493,-20.852 -1.441,-20.764 -1.398,-20.67C-1.484,-17.175 -1.79,-13.687 -2.211,-10.198C-2.423,-9.649 -2.625,-9.106 -2.807,-8.581C-2.889,-8.345 -2.607,-8.224 -2.443,-8.357C-2.663,-6.687 -2.904,-5.018 -3.158,-3.346C-3.52,-5.098 -4.125,-6.817 -4.8,-8.471C-6.435,-12.483 -11.282,-14.417 -13.346,-18.233C-13.594,-18.693 -14.315,-18.423 -14.204,-17.912C-13.348,-14.025 -12.565,-10.184 -10.901,-6.549C-9.207,-2.85 -5.433,-0.977 -4.061,2.813C-5.413,13.062 -5.841,23.293 -5.247,33.666C-5.227,34.012 -5.196,34.357 -5.173,34.703C-7.48,29.121 -13.89,24.897 -16.762,19.952C-16.871,19.765 -17.05,19.698 -17.257,19.725C-19.697,20.037 -17.021,24.641 -16.637,25.611C-15.355,28.854 -13.819,31.801 -11.712,34.578C-9.539,37.443 -6.182,38.523 -4.571,41.694C-3.712,49.54 -2.3,57.351 -0.623,65.035C-0.562,65.313 -0.497,65.59 -0.434,65.868C-1.046,65.207 -1.766,64.636 -2.539,64.061C-4.676,60.43 -6.398,56.575 -8.681,53.026C-9.481,51.78 -11.621,48.151 -13.424,48.539C-13.699,48.597 -13.845,48.867 -13.799,49.132C-13.138,52.968 -11.283,56.41 -8.942,59.496C-8.898,59.555 -8.848,59.604 -8.803,59.663C-11.767,58.386 -15.178,57.925 -17.907,58.271C-18.2,58.308 -18.352,58.695 -18.211,58.936C-16.682,61.557 -14.587,63.235 -11.672,64.083C-8.305,65.065 -4.63,64.721 -1.525,66.595C-1.43,66.652 -1.339,66.642 -1.266,66.6C-0.81,67.025 -0.368,67.471 0.057,67.942C0.958,71.585 2.078,75.199 3.546,78.647C3.523,78.83 3.489,79.01 3.475,79.197C3.451,79.5 3.718,79.622 3.945,79.563C5.632,83.325 7.755,86.872 10.502,90.01C10.95,90.522 11.721,89.803 11.273,89.291C8.46,86.078 6.347,82.451 4.684,78.607C4.675,78.504 4.666,78.402 4.656,78.301C7.506,71.657 11.172,65.032 8.979,57.684C8.916,57.473 8.668,57.379 8.497,57.534C4.878,60.79 2.563,68.361 3.026,74.312C1.629,70.229 0.618,65.99 -0.261,61.791C-1.176,57.42 -1.962,53.024 -2.613,48.609L-2.612,48.611C-2.533,48.833 -2.187,48.839 -2.175,48.573C-1.999,44.419 1.497,42.79 3.37,39.479C5.104,36.414 5.708,32.835 7.152,29.64C7.385,29.127 6.662,28.799 6.301,29.102C1.908,32.79 -2.523,37.752 -3.281,43.61C-3.293,43.519 -3.303,43.428 -3.314,43.336C-3.27,43.266 -3.242,43.179 -3.251,43.076C-3.294,42.625 -3.383,42.215 -3.495,41.821C-3.998,37.332 -4.352,32.826 -4.514,28.307C-4.529,27.885 -4.527,27.466 -4.537,27.045C-3.993,24.774 -2.806,22.825 -1.511,20.922C3.655,18.811 10.795,20.48 14.294,15.234C14.625,14.739 14.139,14.04 13.558,14.191C10.673,14.938 5.408,14.603 1.89,16.103C6.408,11.529 12.932,6.625 12.23,0.168C12.188,-0.208 11.664,-0.318 11.419,-0.081C7.275,3.941 4.17,8.486 1.64,13.672C-0.211,17.46 -3.112,20.817 -4.579,24.765C-4.631,14.943 -3.491,5.299 -2.047,-4.435C-1.865,-5.664 -1.686,-6.899 -1.516,-8.144" style="fill:white;fill-rule:nonzero;"/>
            </g>
        </g>
    </g>
</svg>
