<?xml version="1.0" encoding="UTF-8" standalone="no"?>
<!DOCTYPE svg PUBLIC "-//W3C//DTD SVG 1.1//EN" "http://www.w3.org/Graphics/SVG/1.1/DTD/svg11.dtd">
<svg width="100%" height="100%" viewBox="0 0 482 402" version="1.1" xmlns="http://www.w3.org/2000/svg" xmlns:xlink="http://www.w3.org/1999/xlink" xml:space="preserve" xmlns:serif="http://www.serif.com/" style="fill-rule:evenodd;clip-rule:evenodd;stroke-linejoin:round;stroke-miterlimit:2;">
    <g transform="matrix(1,0,0,1,-1118.847659,-512.698157)">
        <g transform="matrix(4.166667,0,0,4.166667,0,0)">
            <g transform="matrix(1,0,0,1,294.9922,171.1292)">
                <path d="M0,-17.596C-1.574,-19.046 -3.475,-19.761 -5.085,-21.221C-7.771,-23.657 -7.439,-28.263 -7.644,-31.544C-7.655,-31.746 -7.943,-31.745 -7.956,-31.544C-8.188,-28.085 -8.579,-23.201 -5.837,-20.468C-3.838,-18.473 -1.006,-17.458 -0.002,-14.492C0.878,-11.9 0.599,-9.208 1.616,-6.59C2.284,-4.87 3.465,-3.295 4.464,-1.759C6.182,0.883 7.023,3.625 7.766,6.648C8.595,10.028 10.256,12.429 13.37,14.058C13.545,14.15 13.727,13.927 13.583,13.782C10.57,10.731 9.152,8.275 8.157,4.111C7.069,-0.45 3.785,-3.838 2.358,-8.259C1.519,-10.855 2.291,-15.489 0,-17.596" style="fill:rgb(89,86,85);fill-rule:nonzero;"/>
            </g>
            <g transform="matrix(1,0,0,1,305.3174,216.1134)">
                <path d="M0,-7.943C-0.142,-8.292 -0.714,-8.147 -0.574,-7.785C0.505,-4.988 3.801,-4.143 6.416,-3.364C9.424,-2.469 12.475,-1.584 15.551,-0.955C18.834,-0.283 26.392,-0.586 22.093,-5.564C21.959,-5.718 21.694,-5.555 21.755,-5.367C23.57,0.349 15.489,-2.207 12.475,-2.973C9.05,-3.843 1.466,-4.362 0,-7.943" style="fill:rgb(89,86,85);fill-rule:nonzero;"/>
            </g>
            <g transform="matrix(0.99769,0.067928,0.067928,-0.99769,319.175744,208.014018)">
                <path d="M0.374,-0.063C2.677,3.066 1.888,7.482 0.655,10.869C0.59,11.05 0.314,10.954 0.374,10.772C1.592,7.01 1.549,3.773 0.147,0.089C0.096,-0.046 0.274,-0.198 0.374,-0.063" style="fill:rgb(89,86,85);fill-rule:nonzero;"/>
            </g>
            <g transform="matrix(1,0,0,1,379.2305,148.5661)">
                <path d="M0,44.262C-3.808,48.816 -9.849,51.051 -15.583,51.696C-18.06,51.973 -20.608,51.558 -22.938,50.743C-24.739,50.113 -26.509,49.24 -28.477,49.557C-31.224,49.999 -33.288,50.449 -36.051,49.587C-38.315,48.883 -41.013,48.165 -43.021,46.686C-42.401,46.76 -41.783,46.832 -41.168,46.902C-37.06,47.375 -31.861,47.817 -28.792,44.491C-28.572,44.255 -28.844,43.897 -29.13,44.041C-28.88,43.829 -28.624,43.598 -28.376,43.348C-20.126,42.943 -12.805,36.849 -10.062,29.384C-6.525,26.191 -4.979,21.516 -3.842,16.984C-3.768,16.688 -4.221,16.563 -4.298,16.858C-5.395,21.027 -7.109,24.491 -9.556,27.833C-8.352,23.45 -8.741,18.715 -11.42,14.448C-11.727,13.958 -12.376,14.2 -12.434,14.722C-12.44,14.792 -12.451,14.863 -12.458,14.933C-13.999,15.005 -14.757,15.904 -14.913,17.414C-15.741,15.266 -17.368,13.555 -18.771,11.528C-19.117,11.028 -19.817,11.346 -19.721,11.928C-19.684,12.148 -19.108,16.814 -20.525,15.248C-20.982,14.745 -21.431,14.239 -21.887,13.738C-21.196,12.143 -21.117,10.48 -21.446,8.835C-19.565,6.997 -17.777,4.33 -17.209,1.695C-15.07,1.214 -15.956,3.968 -14.446,4.383C-13.57,4.624 -13.247,4.394 -12.45,4.068C-11.85,3.821 -9.661,7.097 -9.097,7.774C-8.978,7.916 -8.739,7.965 -8.568,7.914C-5.472,6.987 -1.864,14.754 -1.162,16.771C0.555,21.711 -3.551,27.275 -7.172,30.071C-7.269,30.145 -7.312,30.239 -7.319,30.331C-8.014,30.638 -8.69,30.981 -9.347,31.335C-9.643,31.495 -9.434,31.927 -9.125,31.858C-6.701,31.32 0.065,28.156 -0.488,32.804C-0.522,33.087 -0.2,33.414 0.084,33.377C7.006,32.457 1.832,42.074 0,44.262M-37.047,34.859C-39.518,34.427 -38.831,33.049 -40.129,31.892C-40.466,31.592 -40.81,31.379 -41.157,31.214C-39.119,29.819 -37.454,27.399 -36.47,25.532C-36.413,25.421 -36.563,25.288 -36.65,25.392C-37.646,26.579 -38.521,27.828 -39.646,28.902C-40.541,29.755 -41.588,30.285 -42.625,30.847C-44.513,30.77 -46.491,31.965 -48.419,32.774C-48.173,32.56 -47.931,32.348 -47.695,32.142C-45.679,30.381 -43.879,28.111 -42.547,25.795C-42.463,25.649 -42.676,25.471 -42.786,25.61C-44.356,27.574 -45.914,29.438 -47.854,31.049C-49.033,32.026 -50.427,32.842 -51.718,33.748C-51.848,33.785 -51.979,33.815 -52.107,33.856C-50.867,32.701 -49.493,31.084 -50.272,29.3C-51.162,27.262 -52.714,25.372 -54.32,23.702C-53.657,22.569 -53.146,21.323 -52.574,20.161C-51.752,18.492 -51.068,16.811 -50.587,15.009C-50.534,14.808 -50.836,14.726 -50.896,14.924C-51.494,16.875 -52.328,18.72 -53.333,20.495C-53.83,21.375 -54.427,22.205 -54.934,23.08C-55.259,22.754 -55.583,22.434 -55.901,22.127C-53.169,19.699 -51.748,15.141 -51.589,11.588C-48.812,11.944 -45.283,16.446 -44.217,18.084C-42.233,21.131 -46.616,26.156 -47.716,28.852C-47.775,28.997 -47.553,29.121 -47.455,29.005C-45.906,27.187 -43.135,23.243 -42.873,20.223C-41.608,20.325 -40.05,19.363 -39.334,21.231C-39.239,21.48 -39.049,21.659 -38.769,21.661C-36.557,21.679 -33.79,19.408 -31.587,19.159C-32.351,23.5 -34.424,26.832 -37.654,29.764C-37.791,29.888 -37.617,30.072 -37.47,30.004C-33.79,28.293 -31.35,23.021 -31.302,19.137C-30.283,19.107 -29.401,19.572 -28.775,20.989C-28.644,21.29 -28.199,21.118 -28.192,20.831C-28.11,17.245 -31.936,18.117 -34.114,18.993C-35.002,19.349 -35.907,19.663 -36.802,20.006C-38.063,20.491 -38.27,20.403 -39.102,19.393C-40.046,18.246 -41.694,19.363 -42.859,19.518C-42.875,19.254 -42.905,18.996 -42.973,18.755C-43.772,15.858 -47.04,12.992 -49.387,11.347C-50.143,10.818 -51.494,9.747 -52.563,10.174C-53.651,10.609 -55.537,11.573 -56.53,10.197C-56.922,9.654 -56.864,9.007 -57.354,8.515C-59.682,6.188 -62.641,8.762 -64.704,10.411C-64.071,8.85 -63.733,7.274 -64.16,5.674C-64.529,4.298 -65.913,3.764 -67.151,3.622C-68.23,3.498 -69.535,4.156 -70.533,4.446C-72.877,5.127 -72.581,1.002 -72.845,-0.112C-72.931,-0.474 -73.303,-0.626 -73.639,-0.562C-75.745,-0.16 -76.466,0.331 -76.919,-1.465C-76.879,-1.456 -76.835,-1.46 -76.794,-1.489C-75.58,-2.327 -74.841,-3.802 -73.956,-4.934C-72.709,-6.527 -70.517,-4.236 -69.222,-3.785C-68.986,-3.704 -68.688,-3.835 -68.574,-4.049C-68.207,-4.731 -64.781,-9.84 -64.242,-8.54C-64.098,-8.194 -63.733,-7.835 -63.369,-7.735C-63.065,-7.652 -62.679,-7.641 -62.386,-7.775C-59.743,-8.979 -53.789,-12.552 -53.705,-5.682C-54.002,-5.203 -54.277,-4.67 -54.531,-4.08C-55.135,-3.848 -55.561,-3.667 -55.541,-3.653C-58.653,-5.92 -62.553,-0.579 -63.989,1.353C-64.229,1.675 -63.72,2.035 -63.45,1.769C-61.522,-0.123 -58.555,-4.377 -55.225,-1.822C-55.015,-1.661 -54.601,-1.718 -54.437,-1.924C-52.242,-4.687 -50.173,-3.117 -47.428,-4.155C-43.192,-5.759 -43.419,-2.714 -40.234,-2.712C-38.685,-2.711 -39.057,-2.665 -37.743,-2.888C-34.55,-3.432 -35.07,-1.787 -33.675,-0.391C-33.467,-0.184 -32.872,-0.233 -32.714,-0.221C-29.362,0.045 -26.687,3.478 -26.685,6.903C-26.685,7.39 -25.937,7.389 -25.929,6.903C-25.9,5.344 -26.538,3.432 -27.604,1.87C-27.254,1.317 -27.057,0.753 -26.996,0.186C-25.553,3.158 -23.405,5.988 -22.644,9.103C-22.785,9.311 -22.922,9.522 -23.05,9.738C-23.142,9.893 -22.948,10.119 -22.789,9.999C-22.696,9.93 -22.603,9.85 -22.511,9.777C-22.328,10.822 -22.312,11.902 -22.544,13.033C-22.58,12.996 -22.612,12.958 -22.647,12.922C-24.086,11.47 -26.005,10.567 -27.892,9.869C-28.208,9.753 -28.456,10.046 -28.488,10.324C-28.885,13.724 -26.141,16.241 -26.188,19.731C-26.275,26.197 -30.871,28.198 -35.422,31.453C-35.55,31.544 -35.476,31.793 -35.308,31.725C-28.155,28.831 -22.262,21.904 -26.726,14.063C-29.18,9.751 -24.228,12.777 -22.896,14.209C-21.734,15.46 -21.513,16.414 -19.815,16.654C-17.998,16.91 -17.972,15.138 -18.249,13.583C-16.718,15.301 -15.501,17.12 -14.945,19.429C-14.917,20.401 -14.856,21.371 -14.823,22.347C-14.695,26.215 -17.254,29.858 -19.602,32.667C-19.765,32.861 -19.521,33.101 -19.327,32.942C-16.526,30.65 -14.977,28.079 -14.073,24.6C-13.726,23.264 -13.785,21.976 -13.867,20.616C-13.912,19.978 -13.938,19.339 -13.943,18.7C-13.95,18.453 -13.07,14.671 -12.65,16.819C-12.552,17.32 -11.692,17.345 -11.617,16.819C-11.6,16.696 -11.585,16.578 -11.568,16.457C-6.083,27.762 -16.192,40.599 -27.675,42.572C-26.681,41.331 -26.1,39.848 -27.143,38.508C-28.685,36.525 -30.565,35.76 -32.999,35.364C-34.363,35.143 -35.664,35.102 -37.047,34.859M-62.471,19.723C-62.672,19.723 -64.058,20.667 -63.992,20.753C-64.247,20.411 -64.497,19.628 -64.989,19.483C-65.787,19.249 -66.207,17.957 -67.212,18.757C-69.828,20.842 -69.616,23.654 -69.784,26.713C-69.899,28.828 -69.722,32.515 -68.778,35.708C-71.39,32.468 -73.257,29.803 -74.479,25.582C-75.65,21.535 -76.052,17.21 -75.979,13.012C-75.976,12.784 -76.325,12.785 -76.331,13.012C-76.508,19.76 -75.815,33.205 -68.744,36.75C-68.625,36.809 -68.523,36.786 -68.438,36.737C-68.124,37.598 -67.744,38.401 -67.288,39.101C-71.241,38.562 -74.552,36.385 -77.355,33.61C-80.368,30.632 -80.242,26.172 -81.441,22.381C-83.467,15.972 -88.854,11.101 -92.09,5.334C-94.388,1.236 -94.312,-2.949 -93.314,-7.392C-93.109,-8.306 -91.576,-12.619 -89.647,-11.129C-89.209,-10.791 -88.945,-10.549 -88.373,-10.549C-87.523,-10.549 -86.725,-11.971 -86.304,-12.538C-86.396,-12.415 -81.242,-6.057 -80.32,-5.303C-80.027,-5.063 -79.486,-5.387 -79.752,-5.743C-80.564,-6.834 -81.287,-8.145 -82.079,-9.405C-81.676,-9.801 -81.493,-10.311 -81.091,-10.923C-79.792,-12.897 -79.17,-11.927 -78.158,-12.939C-76.515,-14.582 -75.594,-22.071 -71.902,-18.609C-71.632,-18.355 -71.237,-18.421 -71.035,-18.72C-65.749,-26.598 -62.261,-14.262 -60.971,-10.634C-60.89,-10.405 -60.55,-10.438 -60.543,-10.691C-60.469,-13.537 -61.309,-16.398 -62.884,-18.739C-62.663,-20.335 -62.341,-21.848 -61.58,-23.306C-60.403,-25.566 -60.102,-23.374 -59.34,-23.097C-57.849,-22.554 -56.112,-21.247 -54.543,-22.753C-52.526,-24.688 -51.318,-23.405 -49.612,-22.334C-48.016,-21.335 -45.851,-22.233 -45.739,-19.283C-45.597,-15.476 -48.711,-12.11 -49.935,-8.564C-51.252,-8.249 -52.271,-7.557 -53.112,-6.516C-53.163,-8.072 -53.941,-9.438 -55.632,-10.036C-56.549,-10.361 -57.89,-10.853 -58.908,-10.573C-60.181,-10.224 -62.854,-7.728 -63.691,-9.849C-63.817,-10.171 -64.119,-10.305 -64.438,-10.154C-66.175,-9.324 -67.211,-8.234 -68.356,-6.731C-69.723,-4.938 -70.42,-6.168 -71.987,-6.801C-74.219,-7.704 -76.208,-3.136 -77.001,-1.827C-77.016,-1.902 -77.031,-1.972 -77.047,-2.053C-77.107,-2.397 -77.482,-2.519 -77.779,-2.469C-81.438,-1.866 -83.671,1.58 -83.497,5.192C-83.483,5.468 -83.053,5.555 -82.995,5.26C-82.62,3.316 -82.009,1.671 -80.721,0.113C-77.985,-3.194 -77.963,-0.559 -77.755,0.965C-77.705,1.334 -77.269,1.474 -76.961,1.416C-75.35,1.112 -73.909,0.323 -73.723,2.473C-73.686,2.912 -73.601,4.05 -73.316,4.434C-72.617,5.38 -71.893,5.566 -70.888,5.449C-74.126,10.532 -74.234,18.496 -72.677,24.059C-72.619,24.267 -72.283,24.231 -72.295,24.007C-72.604,17.616 -73.643,11.159 -70.258,5.351C-68.59,5.014 -65.008,2.754 -64.779,7.158C-64.678,9.094 -66.062,11.226 -66.898,12.882C-67.782,14.631 -68.988,16.606 -68.806,18.632C-68.784,18.866 -68.404,18.96 -68.362,18.691C-67.989,16.31 -66.356,13.926 -65.189,11.508C-64.058,10.987 -63.105,10.245 -62.07,9.556C-58.018,6.86 -58.57,10.336 -57.313,11.592C-56.009,12.897 -54.391,12.581 -52.96,11.804C-52.638,11.629 -52.29,11.561 -51.93,11.561C-52.321,13.204 -52.613,14.846 -53.147,16.459C-53.836,18.543 -55.013,20.104 -56.246,21.831C-57.936,20.38 -60.27,19.723 -62.471,19.723M-44.165,-6.804C-42.831,-6.584 -41.891,-7.312 -41.066,-8.224C-37.324,-12.363 -26.665,-3.819 -28.034,1.29C-29.246,-0.216 -30.885,-1.251 -32.714,-1.016C-32.747,-1.011 -35.338,-3.469 -36.062,-3.73C-36.675,-3.951 -37.352,-3.772 -37.957,-3.665C-42.565,-2.85 -41.442,-4.81 -44.31,-5.629C-46.594,-6.28 -48.403,-4.845 -50.807,-5.155C-51.194,-5.206 -52.305,-4.874 -53.354,-4.51C-50.83,-7.631 -48.295,-7.49 -44.165,-6.804M-48.547,58.839C-45.617,59.926 -41.088,56.694 -39.902,53.965C-38.437,54.207 -37.244,55.026 -36.367,56.887C-35.999,57.67 -35.428,58.946 -34.559,59.35C-34.283,59.478 -34.011,59.557 -33.738,59.616C-34.985,60.406 -36.134,61.389 -37.491,62.043C-38.827,62.687 -40.413,63.19 -41.929,63.147C-44.514,62.137 -46.81,60.766 -48.547,58.839M2.044,32.184C-0.068,31.998 1.249,29.556 -1.027,29.205C-2.35,29 -3.654,29.146 -4.922,29.48C-1.906,27.126 -0.36,23.1 0.101,19.375C0.416,16.82 -0.861,14.497 -2.171,12.431C-3.091,10.978 -4.389,8.299 -5.999,7.418C-7.879,6.39 -8.313,7.229 -9.752,5.169C-10.153,4.595 -11.135,2.822 -12.021,3.006C-14.883,3.602 -14.835,0.478 -17.101,1.127C-16.942,0.047 -16.999,-1.016 -17.364,-2.002C-17.456,-2.25 -17.714,-2.376 -17.958,-2.244C-19.211,-1.569 -19.33,-4.725 -19.614,-5.654C-19.686,-5.887 -19.922,-5.957 -20.131,-5.863C-20.308,-5.784 -20.404,-5.745 -20.471,-5.743C-20.724,-7.51 -21.375,-9.244 -22.334,-10.796C-23.259,-12.296 -25.138,-15.882 -27.049,-16.137C-27.846,-16.244 -28.791,-16.086 -29.601,-16.088C-28.971,-16.086 -32.367,-17.223 -32.239,-17.192C-33.774,-17.572 -34.604,-14.585 -35.953,-15.95C-38.205,-18.231 -41.922,-14.659 -43.532,-13.587C-43.789,-13.416 -43.564,-13.021 -43.29,-13.172C-40.716,-14.587 -38.37,-16.511 -35.782,-14.167C-35.559,-13.965 -35.304,-13.952 -35.038,-14.071C-33.393,-14.803 -32.354,-15.798 -30.359,-15.06C-28.804,-14.484 -27.256,-16.39 -25.799,-14.636C-21.811,-9.835 -19.595,-5.089 -22.304,1.194C-22.393,1.399 -22.13,1.562 -22.001,1.371C-20.778,-0.439 -20.288,-2.483 -20.361,-4.529C-19.585,-3.646 -19.573,-2.397 -19.355,-1.057C-19.315,-0.808 -18.976,-0.694 -18.777,-0.821C-16.386,-2.355 -18.92,3.804 -19.306,4.52C-19.955,5.729 -20.85,6.762 -21.694,7.828C-22.634,4.649 -24.9,1.618 -26.877,-0.59C-26.916,-0.634 -26.959,-0.646 -27.002,-0.654C-27.482,-4.867 -34.544,-9.019 -37.563,-9.971C-38.276,-10.196 -39.542,-10.463 -40.236,-10.134C-41.271,-9.642 -41.001,-9.815 -41.847,-9.005C-43.834,-7.099 -45.202,-8.578 -47.114,-8.736C-47.893,-8.8 -48.578,-8.765 -49.221,-8.679C-47.174,-11.869 -44.299,-16.643 -44.867,-20.211C-45.055,-21.391 -45.499,-22.094 -46.643,-22.559C-48.638,-23.372 -50.452,-25.066 -52.521,-25.5C-53.923,-25.793 -56.187,-22.504 -57.112,-23.362C-57.602,-23.815 -59.201,-24.879 -59.758,-24.957C-62.299,-25.313 -63.222,-21.842 -63.416,-19.477C-64.288,-20.597 -65.344,-21.571 -66.561,-22.329C-69.673,-24.269 -70.481,-19.199 -72.645,-20.675C-75.104,-22.351 -76.915,-18.364 -77.595,-16.812C-78.477,-14.796 -78.499,-14.688 -80.364,-13.748C-81.874,-12.987 -81.857,-11.406 -82.51,-10.072C-83.563,-11.654 -84.776,-13.074 -86.49,-13.759C-86.775,-13.873 -87.064,-13.679 -87.222,-13.462C-87.744,-12.738 -88.13,-11.411 -89.154,-12.353C-89.307,-12.492 -89.554,-12.595 -89.761,-12.513C-94.35,-10.694 -94.854,-7.208 -95.123,-2.555C-95.495,3.877 -90.824,9.344 -87.401,14.278C-86.773,15.183 -86.162,16.095 -85.583,17.018C-87.722,15.078 -90.232,13.774 -92.744,12.303C-93.017,12.143 -93.308,12.259 -93.479,12.495C-94.71,13.186 -95.94,13.878 -97.17,14.568C-97.503,14.585 -97.834,14.848 -97.813,15.211C-97.778,15.778 -97.759,16.06 -97.7,16.315C-100.065,15.954 -102.36,16.185 -104.407,17.011C-104.37,16.966 -104.35,16.906 -104.375,16.848C-105.858,13.47 -103.552,12.183 -101.515,10.306C-100.873,10.377 -100.243,10.518 -99.619,10.705C-98.721,10.973 -97.86,11.419 -96.925,11.514C-96.692,11.538 -96.664,11.226 -96.817,11.116C-97.921,10.328 -99.51,9.82 -100.98,9.787C-100.804,9.607 -100.631,9.421 -100.468,9.225C-99.915,8.559 -99.839,7.566 -99.688,6.754C-99.128,3.715 -95.785,5.672 -93.993,5.635C-93.81,5.631 -93.743,5.426 -93.853,5.296C-94.939,4.005 -97.476,3.563 -99.014,4.141C-100.657,4.759 -100.798,6.285 -101.019,7.781C-101.131,8.537 -101.614,9.231 -102.219,9.89C-102.261,9.898 -102.307,9.901 -102.348,9.909C-102.463,9.935 -102.486,10.044 -102.454,10.134C-103.351,11.054 -104.434,11.911 -105.039,12.772C-106.029,14.186 -105.604,15.786 -104.604,17.024C-104.58,17.051 -104.556,17.058 -104.531,17.063C-106.675,17.959 -108.542,19.507 -109.911,21.735C-111.167,23.774 -110.689,26.444 -110.155,28.595C-109.274,32.138 -109.082,36.085 -107.011,39.161C-105.43,41.51 -102.294,42.825 -100.246,44.678C-98.268,46.467 -98.508,50.739 -95.411,51.59C-94.713,51.782 -94.049,51.711 -93.413,51.491C-90.742,52.712 -87.702,52.906 -85.135,54.306C-82.923,55.514 -82.169,55.801 -79.688,54.981C-76.104,53.795 -73.313,51.032 -69.624,49.855C-68.23,49.41 -66.986,48.961 -65.684,48.31C-64.271,47.605 -64.4,46.433 -62.37,46.123C-61.883,46.049 -62.092,45.316 -62.572,45.387C-64.44,45.66 -64.579,46.523 -66.101,47.598C-68.663,49.409 -72.387,49.638 -75.17,51.269C-76.408,51.995 -77.597,52.794 -78.845,53.507C-84.033,56.47 -82.577,53.385 -85.526,52.757C-87.827,52.269 -90.133,51.679 -92.401,51.014C-91.408,50.441 -90.486,49.63 -89.61,49.078C-85.151,46.26 -80.446,43.778 -75.313,42.484C-74.802,42.355 -75.02,41.573 -75.53,41.696C-80.298,42.846 -84.346,44.995 -88.566,47.435C-91.903,49.365 -95.759,52.013 -98.063,46.053C-98.571,44.738 -99.428,43.938 -100.463,43.006C-101.959,41.659 -103.809,40.735 -105.344,39.422C-106.839,38.144 -107.368,36.306 -107.778,34.416C-104.491,31.745 -101.203,31.458 -97.123,30.774C-96.957,30.746 -96.952,30.46 -97.123,30.436C-100.593,29.949 -105.485,31.083 -107.891,33.889C-108.11,32.838 -108.318,31.783 -108.658,30.814C-110.024,26.922 -110.626,23.382 -107.435,19.969C-104.817,17.169 -100.311,17.004 -96.853,17.79C-96.259,17.926 -95.895,17.353 -96.122,16.838C-96.57,15.819 -93.817,14.718 -93.277,14.223C-91.312,12.421 -86.49,16.711 -85.092,18.039C-85.042,18.087 -84.986,18.097 -84.933,18.09C-83.57,20.403 -82.445,22.826 -81.814,25.512C-81.251,27.908 -81.042,30.668 -79.458,32.686C-76.594,36.332 -71.744,39.874 -66.909,39.635C-65.976,40.848 -64.766,41.655 -63.204,41.739C-63.176,41.741 -63.158,41.727 -63.14,41.717C-62.992,42.442 -62.838,43.158 -62.681,43.858C-62.62,44.132 -62.205,44.016 -62.261,43.742C-63.534,37.561 -64.007,32.326 -61.117,26.528C-61.028,26.348 -61.265,26.219 -61.381,26.373C-64.674,30.738 -64.2,36.328 -63.188,41.458C-68.136,39.521 -68.519,30.953 -68.516,26.713C-68.515,25.315 -68.269,18.266 -66.041,20.421C-65.555,20.891 -65.165,21.302 -64.731,21.886C-64.565,22.111 -64.305,22.272 -64.012,22.179C-63.524,22.023 -61.388,21.095 -61.415,21.092C-58.829,21.442 -56.635,22.076 -55.53,24.308C-55.576,24.427 -55.639,24.537 -55.679,24.659C-55.762,24.909 -55.449,25.122 -55.241,24.995C-55.224,25.049 -55.197,25.089 -55.181,25.143C-55.128,25.307 -55.061,25.435 -54.991,25.559C-56.577,26.907 -57.925,29.756 -58.657,31.128C-59.749,33.172 -61.289,36.105 -60.427,38.467C-60.356,38.658 -60.062,38.584 -60.117,38.381C-60.797,35.895 -58.8,32.99 -57.527,31.01C-56.742,29.788 -55.862,28.614 -54.959,27.479C-54.689,27.14 -54.363,26.833 -54.067,26.508C-53.985,26.572 -53.907,26.631 -53.817,26.703C-53.516,26.947 -53.166,27.113 -52.771,27.203C-49.624,28.629 -51.328,32.109 -52.889,33.834C-52.987,33.942 -52.979,34.065 -52.922,34.157C-56.573,35.517 -59.755,38.068 -61.715,41.472C-61.884,41.766 -61.466,41.986 -61.272,41.73C-59.373,39.218 -56.805,37.147 -53.909,35.865C-53.854,35.968 -53.739,36.037 -53.602,36.002C-52.781,35.792 -51.992,35.411 -51.238,34.942C-51.168,34.924 -51.099,34.897 -51.027,34.88C-48.927,34.374 -41.854,31.326 -40.532,33.268C-39.58,34.664 -38.988,35.337 -37.336,35.907C-36.771,36.102 -35.112,36.218 -34.554,36.271C-32.463,36.237 -30.562,36.83 -28.846,38.035C-29.687,38.414 -30.506,38.826 -31.372,39.155C-32.251,39.488 -33.188,39.701 -34.03,40.125C-34.283,40.253 -34.173,40.702 -33.882,40.673C-32.116,40.499 -29.805,39.623 -28.418,38.458C-28.183,40.145 -28.43,41.594 -29.144,42.807C-29.235,42.866 -29.285,42.964 -29.292,43.063C-29.596,43.523 -29.966,43.949 -30.413,44.337C-30.501,44.433 -30.497,44.561 -30.447,44.663C-33.896,46.121 -37.392,46.058 -41.168,45.652C-42.213,45.539 -43.3,45.449 -44.402,45.355C-44.515,45.217 -44.643,45.093 -44.746,44.945C-44.856,44.785 -45.111,44.928 -45.009,45.099C-44.964,45.178 -44.9,45.241 -44.851,45.316C-48.677,44.988 -52.685,44.584 -55.998,43.107C-56.273,42.985 -56.515,43.387 -56.237,43.516C-52.362,45.319 -48.044,46.055 -43.778,46.589C-41.779,48.502 -38.774,49.468 -36.286,50.44C-34.77,51.032 -33.274,51.583 -31.615,51.325C-27.977,50.762 -25.385,51.294 -22.009,52.477C-17.606,54.02 -12.074,52.946 -7.227,50.679C-7.426,50.891 -7.231,51.274 -6.916,51.199C-4.562,50.638 -7.338,59.967 -7.674,60.943C-10.005,67.717 -16.502,68.429 -22.492,67.142C-27.66,66.032 -34.684,65.604 -40.571,63.634C-40.056,63.561 -39.53,63.444 -39.001,63.297C-37.063,62.757 -34.111,61.48 -32.81,59.711C-30.033,59.679 -27.402,57.152 -24.778,59.438C-21.087,62.654 -15.943,63.143 -11.396,60.947C-10.119,60.329 -8.144,59.206 -8.153,57.508C-8.157,56.981 -8.129,55.555 -8.957,55.587C-9.141,55.593 -9.217,55.839 -9.052,55.935C-7.729,56.707 -10.317,59.368 -11.063,59.824C-12.054,60.429 -13.289,60.679 -14.407,60.93C-17.4,61.601 -20.814,61.554 -23.228,59.437C-24.372,58.432 -25.511,56.77 -27.284,56.864C-29.888,57.002 -33.217,59.632 -34.974,56.073C-37.466,51.022 -40.157,52.595 -44.878,52.972C-50.158,53.395 -52.513,45.961 -57.04,44.335C-57.262,44.256 -57.406,44.606 -57.199,44.711C-52.699,46.996 -49.614,55.356 -43.533,54.176C-42.465,53.969 -41.479,53.847 -40.583,53.893C-42.001,56.443 -46.586,59.903 -49.163,58.099C-50.307,56.615 -51.15,54.834 -51.574,52.667C-51.646,52.302 -52.054,52.135 -52.383,52.207C-57.17,53.265 -57.406,44.929 -59.653,42.449C-59.801,42.286 -60.029,42.492 -59.941,42.671C-58.415,45.76 -58.388,49.44 -56.294,52.263C-55.725,53.03 -54.949,53.38 -54.065,53.639C-52.567,54.082 -52.594,54.281 -51.98,55.558C-52.174,55.319 -52.362,55.094 -52.543,54.887C-52.721,54.683 -52.973,54.942 -52.885,55.15C-51.073,59.43 -47.224,63.017 -48.274,68.108C-48.843,70.859 -51.674,69.386 -53.182,69.291C-55.606,69.14 -58.026,69.375 -60.453,69.362C-61.982,69.353 -63.782,68.91 -65.367,68.827C-69.281,68.622 -70.705,66.977 -72.75,63.992C-72.982,63.69 -73.219,63.392 -73.461,63.099C-75.955,59.987 -75.958,56.143 -72.538,53.735C-71.579,53.059 -70.923,52.502 -70.41,51.449C-70.342,51.31 -70.53,51.136 -70.638,51.273C-73.078,54.394 -80.582,56.718 -76.184,62.115C-74.608,64.045 -72.866,67.003 -70.819,68.436C-68.296,70.202 -64.947,69.682 -62.043,70.197C-58.458,70.834 -54.825,69.932 -51.204,70.612C-49.883,70.86 -48.561,70.813 -47.809,69.529C-46.224,66.821 -47.372,63.042 -49.132,59.813C-43.162,66.28 -33.572,65.492 -25.087,67.493C-17.75,69.222 -9.949,69.586 -6.651,61.226C-6.238,60.18 -3.187,49.404 -6.584,50.366C-3.255,48.715 -0.292,46.524 1.68,44.249C3.48,42.172 7.586,32.668 2.044,32.184" style="fill:rgb(89,86,85);fill-rule:nonzero;"/>
            </g>
            <g transform="matrix(1,0,0,1,350.3682,193.811)">
                <path d="M0,-4C0.124,-4.129 0.002,-4.375 -0.182,-4.313C-3.137,-3.311 -5.584,-2.278 -8.776,-2.055C-11.832,-1.842 -14.942,-2.209 -17.97,-2.586C-18.153,-2.609 -18.196,-2.289 -18.014,-2.264C-12.753,-1.553 -4.221,0.375 0,-4" style="fill:rgb(89,86,85);fill-rule:nonzero;"/>
            </g>
            <g transform="matrix(1,0,0,1,343.1572,157.5937)">
                <path d="M0,1.65C-0.128,1.656 -0.249,1.67 -0.354,1.694C-0.512,1.73 -0.658,1.786 -0.804,1.849C-0.839,1.854 -0.876,1.877 -0.913,1.889C-0.914,1.887 -0.914,1.884 -0.916,1.882C-0.932,1.889 -0.942,1.899 -0.958,1.905C-0.996,1.921 -1.033,1.924 -1.072,1.949C-1.145,1.993 -1.22,2.042 -1.292,2.087C-1.548,0.863 -2.333,-0.4 -3.012,-1.076C-3.206,-1.27 -3.545,-1.018 -3.395,-0.78C-2.922,-0.024 -2.556,0.75 -2.308,1.608C-2.187,2.025 -2.168,2.379 -2.214,2.713C-2.293,2.773 -2.367,2.838 -2.443,2.9C-2.436,2.764 -2.438,2.648 -2.449,2.562C-2.646,1.044 -3.48,-0.709 -4.796,-1.56C-4.904,-1.63 -4.998,-1.579 -5.044,-1.494C-5.312,-1.975 -5.669,-2.363 -6.134,-2.606C-4.945,-3.998 -8.109,-5.121 -9.82,-5.703C-6.108,-5.422 -2.623,-4.476 -1.267,-3.065C-1.1,-2.892 -0.776,-2.779 -0.543,-2.874C-0.525,-2.875 -0.511,-2.874 -0.494,-2.876C-1.226,-1.321 -1.129,0.656 0,1.65M1.44,2.254C1.477,2.258 1.509,2.269 1.546,2.272C1.529,2.328 1.511,2.384 1.495,2.44C1.488,2.372 1.465,2.313 1.44,2.254M4.63,-2.217C3.833,-3.227 3.037,-3.855 1.791,-4.477C1.266,-4.74 -0.434,-4.388 -0.686,-4.559C-2.978,-6.113 -6.086,-6.261 -8.762,-6.437C-10.98,-6.584 -21.797,-7.294 -21.919,-3.347C-21.933,-2.912 -21.377,-2.827 -21.157,-3.141C-19.729,-5.19 -15.23,-5.952 -10.811,-5.76C-10.91,-5.617 -10.928,-5.412 -10.779,-5.282C-10.339,-4.894 -9.815,-4.706 -9.274,-4.492C-8.625,-4.232 -6.086,-3.593 -7.604,-2.825C-8.092,-2.579 -7.837,-1.853 -7.338,-1.842C-4.68,-1.779 -5.396,4.384 -7.002,5.434C-7.33,5.649 -7.046,6.121 -6.696,5.955C-4.788,5.046 -3.951,1.437 -4.771,-0.883C-4.179,-0.037 -3.769,0.942 -3.493,1.928C-3.33,2.517 -3.265,3.151 -3.433,3.744C-3.553,4.173 -4.051,4.216 -4.175,4.646C-4.199,4.732 -4.177,4.845 -4.106,4.906C-4.075,4.933 -4.046,4.947 -4.017,4.969C-5.171,5.392 -6.259,6.45 -7.224,6.94C-7.451,7.055 -7.344,7.426 -7.094,7.416C-5.242,7.345 -3.857,5.042 -2.01,6.439C-1.836,6.571 -1.604,6.515 -1.426,6.439C-0.326,5.973 0.224,6.393 1.215,6.484C1.39,6.501 1.501,6.334 1.516,6.183C1.717,4.238 -1.34,5.386 -2.163,4.998C-2.216,4.972 -2.271,4.957 -2.325,4.936C-1.911,4.704 -1.474,4.507 -1.035,4.331C-0.54,4.131 0.04,4.04 0.359,3.573C0.528,3.325 0.424,2.899 0.148,2.769C0.054,2.725 -0.04,2.716 -0.134,2.7C-0.13,2.686 -0.12,2.672 -0.117,2.657C0.031,2.638 0.182,2.637 0.332,2.662C0.617,2.709 0.857,2.932 1.149,2.998C1.235,3.017 1.308,2.984 1.367,2.931C0.865,5.491 2.037,7.501 4.678,8.728C5.143,8.944 5.55,8.258 5.082,8.036C2.566,6.843 1.279,4.733 2.604,2.025C2.755,1.719 2.577,1.29 2.191,1.307C-0.393,1.421 -0.363,-1.081 0.345,-2.898C1.928,-2.845 3.116,-2.185 3.902,-0.904C4.104,-0.66 4.347,-0.634 4.561,-0.722C6.81,1.168 6.356,5.588 6.388,8.138C6.392,8.399 6.787,8.399 6.793,8.138C6.873,4.467 6.977,1.211 4.954,-1.966C4.88,-2.083 4.762,-2.166 4.63,-2.217" style="fill:rgb(89,86,85);fill-rule:nonzero;"/>
            </g>
        </g>
    </g>
</svg>
