<?xml version="1.0" encoding="UTF-8" standalone="no"?>
<!DOCTYPE svg PUBLIC "-//W3C//DTD SVG 1.1//EN" "http://www.w3.org/Graphics/SVG/1.1/DTD/svg11.dtd">
<svg width="100%" height="100%" viewBox="0 0 429 412" version="1.1" xmlns="http://www.w3.org/2000/svg" xmlns:xlink="http://www.w3.org/1999/xlink" xml:space="preserve" xmlns:serif="http://www.serif.com/" style="fill-rule:evenodd;clip-rule:evenodd;stroke-linejoin:round;stroke-miterlimit:2;">
    <g transform="matrix(1,0,0,1,-180.573784,-1465.189555)">
        <g transform="matrix(4.166667,0,0,4.166667,0,0)">
            <g transform="matrix(1,0,0,1,115.8462,366.0154)">
                <path d="M0,69.969C0.481,70.065 0.962,70.145 1.443,70.219C-1.805,70.297 -5.175,70.998 -8.3,71.97C-8.174,71.872 -8.049,71.777 -7.922,71.678C-2.384,67.328 2.576,68.731 8.554,70.723C8.923,71.009 9.294,71.292 9.667,71.573C6.715,70.162 3.246,69.447 -0.004,69.629C-0.208,69.64 -0.179,69.934 0,69.969M0.789,66.985C2.409,67.29 3.962,67.771 5.383,68.596C4.397,68.281 3.394,68.038 2.371,67.869C1.854,67.49 1.327,67.196 0.789,66.985M-19.78,68.281C-22.484,68.141 -25.156,67.666 -27.794,67.085C-29.71,66.766 -29.635,66.532 -27.57,66.388C-25.94,66.075 -24.288,65.904 -22.638,65.732C-18.599,65.31 -14.633,65.472 -10.676,65.941C-13.011,66.24 -15.344,66.687 -17.728,66.277C-17.979,66.233 -18.017,66.609 -17.776,66.661C-14.421,67.402 -10.906,66.798 -7.504,66.377C-6.735,66.497 -5.968,66.625 -5.198,66.762C-10.259,67.576 -14.512,68.553 -19.78,68.281M-4.349,66.433C-3.962,66.457 -3.576,66.484 -3.189,66.512C-3.574,66.542 -3.967,66.585 -4.366,66.641C-4.34,66.573 -4.334,66.5 -4.349,66.433M-25.011,59.26C-28.043,58.063 -24.783,58.111 -23.448,57.879C-19.812,57.247 -16.082,57.832 -12.579,58.828C-9.988,59.565 -7.58,60.698 -5.251,62C-8.858,60.634 -12.609,59.84 -15.969,60.081C-16.203,60.099 -16.174,60.436 -15.965,60.475C-9.607,61.679 -4.035,63.407 1.48,66.235C0.25,65.961 -1.04,65.816 -2.348,65.71C-8.986,65.177 -14.622,63.641 -20.738,61.01C-22.153,60.401 -23.579,59.823 -25.011,59.26M-9.095,58.445C-12.088,56.782 -15.963,55.583 -18.03,52.727C-14.729,53.35 -11.337,54.371 -8.6,56.14C-7.894,56.766 -7.199,57.401 -6.52,58.044C-6.438,58.12 -6.338,58.083 -6.278,58.011C-6.21,58.078 -6.136,58.141 -6.07,58.21C-5.938,58.35 -5.756,58.276 -5.691,58.149C-3.224,60.683 -0.622,63.115 2.138,65.454C0.717,64.482 -0.729,63.552 -2.203,62.689C-4.449,61.188 -6.745,59.748 -9.095,58.445M-30.871,50.865C-32.202,50.925 -33.514,51.11 -34.808,51.388C-32.819,50.11 -30.828,48.904 -28.674,47.922C-19.98,43.958 -14.082,50.31 -8.282,55.543C-8.436,55.43 -8.598,55.325 -8.757,55.218C-12.257,51.971 -16.74,49.249 -21.445,49.285C-21.698,49.286 -21.738,49.61 -21.493,49.671C-18.47,50.457 -15.776,51.169 -13.065,52.774C-12.744,52.963 -12.44,53.184 -12.13,53.39C-17.956,50.922 -25.324,50.61 -30.871,50.865M-17.804,44.753C-22.634,40.46 -29.06,37.107 -35.37,36.694C-35.645,36.677 -35.777,37.08 -35.495,37.179C-32.247,38.307 -28.945,39.012 -25.776,40.408C-23.701,41.324 -21.725,42.474 -19.869,43.791C-21.122,43.289 -22.414,42.894 -23.639,42.542C-26.649,41.679 -29.739,41.245 -32.837,40.837C-37.663,40.201 -41.903,38.794 -46.283,36.697C-46.766,36.466 -49.269,34.948 -49.789,35.027C-48.312,34.803 -46.838,34.554 -45.362,34.322C-41.353,33.689 -37.364,33.308 -33.303,33.599C-25.494,34.157 -21.151,39.8 -16.353,45.006C-16.009,45.523 -15.653,46.029 -15.301,46.537C-16.039,45.838 -16.89,45.252 -17.804,44.753M-35.519,32.241C-39.772,31.346 -44.181,30.781 -48.504,30.326C-50.462,30.12 -52.44,30.064 -54.403,29.93C-55.186,29.876 -61.173,29.356 -58.077,28.633C-50.294,26.818 -40.544,27.831 -33.905,32.504C-34.372,32.467 -34.841,32.441 -35.313,32.427C-35.344,32.341 -35.401,32.266 -35.519,32.241M-34.4,28.817C-37.673,28.261 -40.905,27.898 -44.111,27.003C-48.408,25.805 -52.38,23.707 -56.795,22.909C-56.928,22.885 -57.071,22.885 -57.208,22.869C-54.036,22.613 -50.862,22.491 -47.671,22.558C-46.146,22.588 -44.663,22.696 -43.217,22.876C-42.968,23.17 -42.712,23.464 -42.444,23.752C-42.263,23.949 -41.994,23.72 -42.128,23.5C-42.234,23.326 -42.335,23.156 -42.438,22.985C-42.088,23.034 -41.739,23.084 -41.393,23.144C-41.135,23.593 -40.872,24.036 -40.607,24.47C-40.488,24.667 -40.182,24.468 -40.271,24.267C-40.417,23.932 -40.56,23.603 -40.701,23.275C-35.108,24.345 -30.052,26.619 -25.241,30.247C-25.047,30.394 -24.84,30.264 -24.78,30.081C-22.38,34.35 -19.753,38.512 -16.937,42.504C-20.154,38.658 -24.185,35.31 -28.745,33.603C-30.164,33.073 -31.649,32.753 -33.171,32.579C-33.18,32.564 -33.178,32.547 -33.193,32.534C-34.763,31.044 -36.675,29.9 -38.776,29.036C-33.188,29.66 -25.105,29.746 -22.842,34.669C-22.734,34.906 -22.37,34.747 -22.472,34.507C-24.296,30.2 -30.377,29.498 -34.4,28.817M-68.363,17.269C-65.938,16.002 -63.208,15.528 -60.519,15.283C-55.184,14.797 -49.921,16.615 -45.547,19.56C-45.339,19.92 -45.12,20.278 -44.887,20.631C-47.2,18.891 -50.511,18.32 -53.205,17.911C-53.402,17.881 -53.432,18.175 -53.243,18.215C-52.586,18.355 -51.937,18.519 -51.287,18.688C-56.3,17.745 -61.597,18.128 -66.739,18.448C-68.935,18.584 -73.263,19.825 -68.363,17.269M-53.218,13.247C-57.659,11.423 -62.543,11.423 -66.822,9.004C-67.809,8.396 -68.683,7.649 -69.445,6.765C-71.402,4.701 -67.067,5.983 -66.661,6.041C-63.605,6.483 -60.62,6.972 -57.67,7.925C-52.995,9.437 -50.178,12.882 -47.116,16.238C-46.929,16.74 -46.724,17.24 -46.496,17.735C-48.483,15.904 -50.609,14.319 -53.218,13.247M-65.855,-6.469C-64.215,-5.126 -62.632,-3.72 -61.076,-2.283C-56.986,1.493 -53.832,5.745 -51.026,10.492C-51.887,9.794 -52.745,9.092 -53.597,8.383C-53.518,8.353 -53.464,8.28 -53.519,8.185C-54.773,6.039 -56.728,4.32 -58.257,2.369C-58.461,2.11 -58.858,2.428 -58.657,2.69C-57.359,4.378 -55.967,6.086 -54.483,7.639C-59.62,3.302 -64.441,-1.36 -67.879,-7.251C-69.682,-10.34 -66.532,-7.023 -65.855,-6.469M-49.448,11.769C-49.634,11.619 -49.82,11.469 -50.006,11.319C-49.979,11.258 -49.977,11.183 -50.015,11.099C-50.087,10.937 -50.17,10.782 -50.245,10.623C-49.985,11.01 -49.717,11.39 -49.448,11.769M-58.303,-12.29C-58.601,-14.288 -55.667,-11.378 -55.507,-11.17C-54.715,-10.131 -54.188,-8.855 -53.666,-7.669C-51.143,-1.93 -50.717,4.49 -49.022,10.435C-49.111,10.292 -49.2,10.149 -49.289,10.005C-51.457,5.438 -52.011,0.115 -55.079,-3.967C-55.18,-4.102 -55.401,-3.967 -55.331,-3.814C-53.836,-0.582 -52.823,3.005 -51.474,6.391C-52.857,4.031 -54.158,1.619 -55.249,-0.945C-56.792,-4.57 -57.723,-8.404 -58.303,-12.29M-48.813,12.66C-48.489,13.098 -48.159,13.53 -47.824,13.956C-47.823,13.962 -47.821,13.968 -47.819,13.974C-48.278,13.445 -48.754,12.931 -49.244,12.434C-49.15,12.498 -49.056,12.569 -48.962,12.633C-48.91,12.669 -48.859,12.672 -48.813,12.66M-47.632,3.823C-47.233,0.852 -46.129,-1.99 -44.989,-4.74C-44.866,-5.036 -43.406,-9.59 -42.942,-6.825C-42.646,-5.06 -42.942,-3.135 -43.161,-1.372C-43.762,3.467 -45.098,7.979 -44.898,12.905C-44.772,16 -43.627,18.967 -42.178,21.717C-42.532,21.682 -42.886,21.653 -43.242,21.626C-43.458,21.253 -43.668,20.882 -43.874,20.514C-43.658,20.4 -43.548,20.074 -43.799,19.874C-44.026,19.691 -44.265,19.531 -44.497,19.359C-44.607,19.148 -44.72,18.937 -44.826,18.728C-44.809,18.706 -44.792,18.684 -44.783,18.658C-44.625,18.81 -44.47,18.963 -44.309,19.112C-44.151,19.257 -43.95,19.013 -44.062,18.855C-44.657,18.008 -45.294,17.131 -45.962,16.256C-46.026,16.1 -46.087,15.945 -46.148,15.789C-45.984,15.764 -45.837,15.621 -45.941,15.448C-46.21,14.993 -46.485,14.547 -46.758,14.101C-47.762,10.969 -48.15,7.676 -47.632,3.823M-35.447,22.949C-37.318,22.409 -39.294,22.044 -41.32,21.81C-42.871,18.06 -43.965,14.639 -44.091,10.743C-43.123,15.984 -39.727,20.026 -35.447,22.949M-34.718,16.979C-31.806,19.297 -30.014,22.006 -28.12,24.99C-30.549,22.453 -33.576,20.374 -36.056,17.939C-36.207,17.79 -36.469,17.99 -36.318,18.149C-33.614,21.024 -30.611,23.845 -27.534,26.352C-28.175,26.104 -28.814,25.854 -29.436,25.565C-30.287,25.03 -31.192,24.563 -32.133,24.148C-33.556,23.323 -34.93,22.411 -36.239,21.407C-37.965,20.083 -39.412,18.479 -40.704,16.741C-41.135,16.162 -42.915,11.313 -43.068,11.213C-40.216,13.047 -37.374,14.866 -34.718,16.979M-25.187,29.342C-25.93,28.408 -26.762,27.575 -27.672,26.836C-27.478,26.905 -27.284,26.981 -27.09,27.046C-26.961,27.089 -26.862,27.021 -26.81,26.93C-26.678,26.979 -26.542,26.819 -26.638,26.693C-26.727,26.576 -26.828,26.469 -26.92,26.355C-26.919,26.342 -26.911,26.332 -26.914,26.321C-26.94,26.188 -26.986,26.063 -27.017,25.933C-26.423,27.074 -25.813,28.212 -25.187,29.342M-35.893,10.479C-37.427,7.181 -36.698,2.961 -36.685,-0.831C-34.448,3.742 -33.522,8.622 -32.02,13.395C-32.903,11.747 -33.776,10.094 -34.418,8.34C-34.52,8.06 -34.932,8.247 -34.838,8.525C-34.206,10.383 -33.386,12.18 -32.5,13.948C-32.52,13.99 -32.524,14.04 -32.501,14.099C-32.214,14.805 -31.914,15.51 -31.613,16.217C-33.057,14.307 -34.857,12.707 -35.893,10.479M-18.427,38.798C-18.256,39.079 -18.081,39.357 -17.885,39.624C-17.864,39.67 -17.848,39.716 -17.826,39.764C-18.03,39.448 -18.234,39.133 -18.436,38.815C-18.433,38.809 -18.43,38.804 -18.427,38.798M-21.904,18.562C-20.952,13.554 -19.511,8.728 -18.848,3.705C-17.522,9.526 -15.677,15.393 -16.297,21.329C-16.662,22.488 -16.959,23.663 -17.136,24.832C-17.156,24.958 -17.082,25.035 -16.99,25.059C-18.049,29.295 -19.615,33.181 -18.639,37.4C-20.888,31.813 -18.65,25.761 -18.165,19.915C-18.145,19.674 -18.512,19.556 -18.59,19.805C-20.216,25 -21.48,31.873 -19.253,37.174C-22.677,31.237 -23.208,25.428 -21.904,18.562M-12.251,15.407C-10.866,13.37 -9.065,11.74 -7.575,9.83C-9.139,15.395 -13.025,19.611 -15.93,24.561C-15.73,23.726 -15.547,22.882 -15.395,22.024C-14.477,19.765 -13.666,17.485 -12.251,15.407M-14.688,41.981C-13.683,43.808 -12.79,45.782 -12.155,47.788C-14.1,45.286 -15.921,42.692 -17.653,40.032C-17.412,40.206 -17.032,39.966 -17.142,39.617C-17.375,38.881 -17.531,38.16 -17.645,37.448C-16.75,38.99 -15.544,40.424 -14.688,41.981M-9.938,50.538C-10.488,49.883 -11.023,49.217 -11.554,48.547C-11.555,48.537 -11.547,48.533 -11.549,48.523C-11.587,48.332 -11.642,48.147 -11.684,47.959C-11.156,48.867 -10.573,49.732 -9.938,50.538M-14.117,33.357C-13.816,29.75 -11.388,27.085 -9.165,24.494C-8.453,23.665 -8.348,23.229 -7.959,22.243C-7.999,22.343 -7,26.584 -6.992,27.329C-6.934,33.004 -9.853,39.531 -10.128,45.563C-10.194,45.505 -10.26,45.445 -10.326,45.39C-10.849,41.558 -10.62,37.697 -10.25,33.573C-10.229,33.342 -10.597,33.224 -10.66,33.467C-11.876,38.119 -11.799,42.826 -10.596,47.325C-12.991,43.062 -14.536,38.37 -14.117,33.357M-5.394,52.584C-5.006,53.12 -4.653,53.665 -4.317,54.218C-3.78,55.432 -3.137,56.603 -2.405,57.732C-2.141,58.253 -1.877,58.781 -1.61,59.307C-3.097,57.882 -4.541,56.432 -5.941,54.986C-6.453,54.456 -6.947,53.913 -7.443,53.372C-7.512,53.24 -7.58,53.109 -7.644,52.976C-7.525,53.081 -7.409,53.191 -7.287,53.291C-7.03,53.503 -6.699,53.136 -6.893,52.882C-7.464,52.134 -8.02,51.368 -8.556,50.585C-8.795,49.751 -8.958,48.91 -9.057,48.064C-7.828,49.564 -6.528,51.019 -5.394,52.584M-2.336,51.325C-0.367,54.628 0.625,58.389 2.783,61.635C2.961,61.904 3.38,61.631 3.256,61.349C3.206,61.235 3.153,61.122 3.103,61.011C3.715,61.947 4.366,62.871 5.042,63.794C5.215,64.032 5.57,63.874 5.604,63.634C5.803,64.264 6.02,64.891 6.276,65.505C6.303,65.569 6.351,65.604 6.401,65.63C6.479,65.895 6.569,66.158 6.675,66.425C6.122,66.006 5.568,65.587 5.024,65.15C5.026,65.078 5.001,65.004 4.931,64.945C2.525,62.948 0.4,60.644 -1.275,58.101C-1.804,56.669 -2.625,55.309 -3.457,54.031C-4.491,51.574 -5.099,48.954 -5.15,46.211C-4.439,47.994 -3.342,49.64 -2.336,51.325M1.029,43.478C1.609,41.673 2.252,39.925 2.701,38.082C3.148,36.253 1.756,32.7 3.687,35.015C8.009,40.201 7.334,48.361 6.997,54.601C6.929,55.842 6.751,57.013 6.564,58.142C6.327,58.615 6.11,59.091 5.923,59.575C5.191,54.489 4.569,49.391 3.707,44.319C3.654,44.008 3.174,44.078 3.224,44.389C4.206,50.58 3.684,57.28 5.507,63.327C2.068,56.514 -1.569,51.561 1.029,43.478M13.545,51.634C13.243,56.787 7.254,59.691 6.684,64.469C6.636,64.181 6.594,63.892 6.547,63.604C6.469,62.339 6.604,61.066 6.82,59.781C8.811,56.781 10.529,53.773 13.545,51.634M6.109,60.817C6.126,60.792 6.143,60.77 6.159,60.745C6.149,60.821 6.143,60.895 6.134,60.969C6.126,60.918 6.117,60.867 6.109,60.817M-0.447,60.394C-0.559,60.288 -0.67,60.186 -0.781,60.081C-0.786,60.039 -0.791,59.998 -0.797,59.958C-0.682,60.104 -0.566,60.248 -0.447,60.394M-27.812,0.855C-27.785,-4.122 -27.178,3.588 -27.176,3.779C-27.158,6.707 -28.102,9.635 -28.752,12.497C-28.615,10.206 -28.372,7.932 -28.09,5.609C-27.897,4.021 -27.822,2.453 -27.812,0.855M30.121,83.621C25.677,81.929 22.14,78.94 18.26,76.285C15.499,74.395 12.751,72.677 10.071,70.808C10.061,70.719 10.013,70.631 9.912,70.573C9.7,70.455 9.486,70.352 9.273,70.24C7.904,69.263 6.552,68.243 5.229,67.126C1.303,63.811 -2.503,60.41 -6.064,56.794C-6.075,56.768 -6.068,56.742 -6.089,56.719C-7.621,54.946 -9.187,53.161 -10.887,51.56C-12.254,49.965 -13.568,48.321 -14.821,46.618C-14.592,46.854 -14.365,47.088 -14.132,47.318C-13.869,47.577 -13.485,47.276 -13.685,46.96C-13.747,46.864 -13.813,46.766 -13.876,46.667C-11.999,49.127 -10.052,51.51 -8.042,53.792C-7.579,54.469 -7.037,55.128 -6.385,55.762C-6.33,55.816 -6.268,55.821 -6.21,55.807C-2.163,60.118 2.41,64.06 7.102,67.646C7.125,67.707 7.141,67.767 7.166,67.829C7.218,67.963 7.34,67.986 7.441,67.946C7.465,67.984 7.482,68.02 7.506,68.059C7.555,68.138 7.638,68.138 7.711,68.109C7.978,68.31 8.243,68.518 8.51,68.715C14.476,73.169 22.072,75.47 27.523,80.604C27.819,80.884 28.271,80.401 28.013,80.099C24.364,75.827 17.776,73.414 12.992,70.662C11.069,69.555 9.204,68.305 7.387,66.965C5.847,60.564 14.92,57.242 14.501,50.644C14.476,50.237 14.003,50.168 13.725,50.337C11.322,51.799 9.066,54.031 7.454,56.571C7.478,56.449 7.503,56.33 7.527,56.209C8.106,53.294 8.136,50.043 8.03,47.081C7.822,41.314 6.539,36.313 2.345,32.176C2.051,31.885 1.386,32.03 1.508,32.539C2.972,38.617 -1.458,43.345 -1.183,49.268C-1.135,50.276 -1.007,51.245 -0.812,52.188C-0.834,52.132 -0.858,52.077 -0.88,52.024C-2.169,48.695 -4.831,46.435 -4.931,42.617C-4.946,42.037 -5.832,42.097 -5.914,42.628C-6.372,45.573 -6.162,48.391 -5.446,51.045C-6.563,49.435 -7.797,47.833 -9.169,46.459C-9.276,42.846 -8.399,39.134 -7.449,35.374C-6.233,30.57 -4.791,24.921 -7.996,20.603C-8.231,20.286 -8.791,20.436 -8.821,20.834C-9.055,24.033 -12.599,26.603 -14.053,29.365C-15.366,31.857 -15.42,34.718 -15.133,37.441C-15.039,38.337 -14.883,39.255 -14.682,40.178C-15.469,38.643 -16.456,37.024 -17.795,36.196C-18.054,32.87 -17.247,29.748 -16.425,26.547C-12.763,20.108 -7.208,15.31 -6.143,7.605C-6.066,7.046 -6.799,6.935 -7.036,7.374C-8.904,10.832 -12.201,13.178 -14.216,16.571C-14.507,17.061 -14.766,17.58 -15.02,18.101C-15.031,12.124 -17.604,5.918 -18.524,0.153C-18.613,-0.407 -19.515,-0.433 -19.546,0.162C-20.144,11.515 -25.74,22.479 -21.989,32.962C-23.006,31.209 -23.995,29.439 -24.966,27.658C-25.375,23.894 -25.736,20.565 -24.447,16.879C-23.665,14.637 -22.637,12.59 -22.396,10.202C-22.372,9.97 -22.578,9.734 -22.824,9.783C-28.738,10.994 -28.229,19.746 -26.623,24.114C-26.549,24.313 -26.22,24.265 -26.207,24.052C-25.961,19.899 -28.027,14.435 -24.326,11.256C-22.212,9.442 -23.659,12.853 -23.957,13.726C-24.516,15.361 -25.203,16.93 -25.67,18.598C-26.41,21.239 -26.059,23.93 -25.556,26.568C-26.422,24.962 -27.277,23.353 -28.121,21.74C-29.099,16.41 -27.755,11.885 -26.712,6.633C-26.056,3.329 -26.232,0.169 -28.22,-2.594C-28.47,-2.941 -29.01,-2.67 -28.958,-2.274C-28.102,4.226 -30.667,10.584 -29.5,17.067C-29.464,17.265 -29.318,17.338 -29.173,17.328C-29.097,18.428 -28.928,19.523 -28.708,20.61C-28.848,20.342 -28.987,20.075 -29.126,19.809C-29.11,19.773 -29.104,19.732 -29.12,19.684C-29.427,18.713 -29.815,17.778 -30.244,16.859C-31.146,9.937 -33.458,2.836 -36.828,-3.237C-37.102,-3.731 -37.849,-3.549 -37.792,-2.959C-37.409,1.03 -38.374,5.659 -37.089,9.539C-35.898,13.14 -32.91,14.787 -30.937,17.863C-30.923,17.885 -30.9,17.887 -30.881,17.898C-30.479,18.808 -30.064,19.718 -29.64,20.624C-33.152,16.046 -39.076,12.74 -43.483,9.906C-43.697,9.769 -43.966,9.837 -44.099,10.019C-44.101,8.699 -43.999,7.324 -43.759,5.859C-42.924,0.74 -41.292,-4.348 -42.819,-9.485C-42.919,-9.821 -43.361,-9.713 -43.488,-9.473C-46.768,-3.262 -48.921,3.563 -48.434,10.106C-49.647,5.528 -50.149,0.677 -51.45,-3.865C-52.486,-7.485 -54.324,-13.825 -58.838,-14.367C-59.117,-14.399 -59.328,-14.162 -59.302,-13.892C-58.651,-7.387 -56.623,-0.927 -53.574,4.984C-57.774,-0.863 -63.545,-5.605 -69.202,-9.944C-69.442,-10.128 -69.776,-9.856 -69.656,-9.583C-66.499,-2.442 -60.794,3.473 -54.612,8.422C-59.874,5.884 -65.486,5.578 -71.148,4.465C-71.448,4.407 -71.744,4.78 -71.589,5.057C-69.357,8.997 -66.014,10.804 -61.749,12.029C-59.04,12.805 -56.245,13.245 -53.535,14.033C-51.42,14.65 -49.494,15.899 -47.715,17.327C-55.466,13.243 -65.021,13.496 -72.345,18.77C-72.712,19.035 -72.397,19.505 -72.03,19.498C-63.195,19.309 -53.909,17.49 -45.618,21.08C-45.402,21.228 -45.186,21.377 -44.97,21.527C-51.971,21.239 -59.191,22.262 -64.568,23.239C-64.764,23.275 -64.781,23.608 -64.564,23.605C-59.602,23.553 -55.583,23.805 -50.866,25.561C-49.408,26.104 -47.953,26.656 -46.485,27.166C-51.71,26.622 -57.157,27.281 -61.405,28.739C-61.734,28.852 -61.719,29.386 -61.394,29.492C-57.715,30.69 -53.873,30.784 -50.039,31.026C-46.217,31.266 -42.451,32.031 -38.654,32.5C-42.994,32.804 -47.399,33.793 -51.332,34.395C-51.77,34.461 -51.805,35.034 -51.43,35.214C-45.17,38.208 -39.907,40.934 -32.969,41.891C-27.924,42.586 -21.173,43.207 -16.642,46.355C-16.244,46.707 -15.852,47.071 -15.47,47.439C-15.41,47.498 -15.331,47.489 -15.275,47.453C-14.715,47.971 -14.197,48.538 -13.751,49.173C-13.659,49.305 -13.472,49.201 -13.477,49.066C-13.29,49.315 -13.103,49.562 -12.914,49.809C-14.947,48.216 -17.202,46.95 -19.828,46.299C-26.967,44.53 -32.589,48.976 -38.298,52.525C-38.748,52.804 -38.291,53.513 -37.827,53.304C-33.153,51.199 -27.538,51.54 -22.572,52.071C-21.417,52.194 -20.196,52.353 -18.952,52.563C-18.005,54.913 -15.023,56.248 -12.934,57.336C-11.931,57.86 -10.95,58.414 -9.971,58.976C-15.709,56.895 -21.788,56.258 -28.19,58.247C-28.503,58.345 -28.462,58.829 -28.18,58.933C-23.508,60.635 -19.048,63.129 -14.318,64.731C-19.875,64.464 -25.508,65.087 -30.872,66.253C-31.226,66.33 -31.375,66.893 -30.964,67.02C-25.824,68.601 -20.361,69.469 -14.972,69.204C-10.148,68.969 -3.749,65.886 1.02,67.69C0.182,67.608 -0.667,67.564 -1.538,67.581C-4.968,67.653 -7.9,70.515 -10.454,72.436C-10.954,72.642 -11.403,72.908 -11.824,73.207C-12.852,73.611 -13.83,74.031 -14.738,74.454C-15.208,74.672 -15.013,75.509 -14.477,75.364C-13.383,75.063 -12.413,74.642 -11.495,74.135C-11.185,74.024 -10.875,73.911 -10.565,73.803C-8.237,72.978 -5.82,72.44 -3.398,71.981C1.15,71.12 6.102,70.881 10.475,72.61C10.64,72.674 10.79,72.43 10.631,72.331C10.522,72.266 10.403,72.216 10.292,72.154C10.32,72.138 10.341,72.114 10.354,72.084C12.343,73.55 14.396,74.932 16.584,76.171C21.1,78.73 24.721,82.906 29.864,84.259C30.28,84.368 30.547,83.783 30.121,83.621" style="fill:white;fill-rule:nonzero;"/>
            </g>
        </g>
    </g>
</svg>
