<?xml version="1.0" encoding="UTF-8" standalone="no"?>
<!DOCTYPE svg PUBLIC "-//W3C//DTD SVG 1.1//EN" "http://www.w3.org/Graphics/SVG/1.1/DTD/svg11.dtd">
<svg width="100%" height="100%" viewBox="0 0 533 495" version="1.1" xmlns="http://www.w3.org/2000/svg" xmlns:xlink="http://www.w3.org/1999/xlink" xml:space="preserve" xmlns:serif="http://www.serif.com/" style="fill-rule:evenodd;clip-rule:evenodd;stroke-linejoin:round;stroke-miterlimit:2;">
    <g transform="matrix(1,0,0,1,-805.111486,-1396.349737)">
        <g transform="matrix(4.166667,0,0,4.166667,0,0)">
            <g transform="matrix(1,0,0,1,249.8437,403.7892)">
                <path d="M0,-9.008C-0.61,-6.436 -0.916,-4.229 -2.348,-1.917C-3.089,-0.722 -4.088,0.283 -5.108,1.238C-5.773,2.372 -6.054,2.304 -5.952,1.035C-5.986,0.627 -6.01,0.219 -6.023,-0.19C-6.202,-4.163 -5.135,-9.792 -1.045,-11.536C-0.744,-11.665 -0.961,-12.178 -1.269,-12.064C-6.784,-10.026 -7.645,-2.241 -6.594,2.781C-6.519,3.14 -6.089,3.17 -5.85,2.978C-2.437,0.237 1.237,-4.3 0.461,-9.008C0.422,-9.244 0.053,-9.227 0,-9.008" style="fill:rgb(89,86,85);fill-rule:nonzero;"/>
            </g>
            <g transform="matrix(1,0,0,1,235.9155,398.351)">
                <path d="M0,-2.1C-0.706,-1.962 -1.306,-1.43 -1.488,-0.733C-1.54,-0.537 -1.36,-0.365 -1.167,-0.411C-0.803,-0.499 -0.498,-0.685 -0.186,-0.891C0.077,-1.066 0.288,-1.077 0.48,-0.994C0.464,-0.996 0.446,-0.997 0.427,-0.997C0.425,-0.997 0.425,-1.001 0.422,-1.001C0.4,-1.002 0.38,-1.004 0.358,-1.005C-0.042,-1.036 -0.093,-0.441 0.266,-0.329C0.494,-0.259 0.69,-0.141 0.893,-0.02C1.171,0.144 1.485,-0.019 1.584,-0.3C1.609,-0.397 1.656,-0.478 1.725,-0.542C1.926,-0.758 1.905,-1.04 1.725,-1.256C1.296,-1.77 0.715,-2.244 0,-2.1" style="fill:rgb(89,86,85);fill-rule:nonzero;"/>
            </g>
            <g transform="matrix(1,0,0,1,255.1592,404.2307)">
                <path d="M0,2.447C0.262,2.517 0.506,2.359 0.59,2.112C0.76,1.594 0.852,1.108 0.861,0.564C0.865,0.195 0.43,-0.07 0.113,0.134C-0.053,0.24 -0.287,0.513 -0.463,0.823C-0.467,0.824 -0.469,0.823 -0.471,0.824C-1.33,1.15 -0.617,2.279 0,2.447" style="fill:rgb(89,86,85);fill-rule:nonzero;"/>
            </g>
            <g transform="matrix(1,0,0,1,258.4951,405.1583)">
                <path d="M0,1.662C0.137,1.545 0.264,1.415 0.398,1.291C0.473,1.224 0.549,1.157 0.625,1.093C0.643,1.083 0.635,1.084 0.648,1.078C0.959,1.053 1.24,0.811 1.098,0.44C1.092,0.428 1.086,0.413 1.082,0.398C1.064,0.357 1.029,0.335 1.008,0.3C0.986,0.264 0.967,0.226 0.937,0.194C0.904,0.156 0.863,0.123 0.82,0.097C0.355,-0.261 -0.48,-0.25 -0.83,0.215C-0.879,0.281 -0.879,0.411 -0.83,0.478C-0.812,0.503 -0.787,0.51 -0.768,0.529C-0.814,0.784 -0.857,1.036 -0.887,1.294C-0.939,1.789 -0.303,1.923 0,1.662" style="fill:rgb(89,86,85);fill-rule:nonzero;"/>
            </g>
            <g transform="matrix(1,0,0,1,248.8901,409.0532)">
                <path d="M0,-1.643C-0.174,-1.629 -0.331,-1.392 -0.16,-1.256C1.526,0.098 4.687,-0.319 6.5,-1.239C6.691,-1.337 6.587,-1.613 6.394,-1.622C5.332,-1.675 4.263,-1.494 3.199,-1.472C2.123,-1.452 1.072,-1.741 0,-1.643" style="fill:rgb(89,86,85);fill-rule:nonzero;"/>
            </g>
            <g transform="matrix(1,0,0,1,255.0146,398.604)">
                <path d="M0,5.062C0.139,4.339 0.15,3.606 0.205,2.875C0.277,1.932 0.502,0.977 0.443,0.032C0.434,-0.14 0.219,-0.202 0.121,-0.055C-0.764,1.289 -0.696,3.541 -0.406,5.062C-0.367,5.264 -0.037,5.264 0,5.062" style="fill:rgb(89,86,85);fill-rule:nonzero;"/>
            </g>
            <g transform="matrix(1,0,0,1,312.1807,402.0963)">
                <path d="M0,-7.026C-0.033,-6.979 -0.037,-6.917 -0.045,-6.859C-10.896,-0.601 -21.732,2.041 -33.859,0.68C-27.531,-0.361 -21.252,-2.203 -15.053,-3.38C-10.195,-4.301 -5.861,-5.848 -1.641,-8.395C0.988,-9.984 2.953,-12.432 5.162,-14.611C3.846,-11.88 1.621,-9.502 0,-7.026M1.367,-2.255C0.613,0.155 2.127,0.221 -2.029,-0.446C-2.463,-0.514 -2.801,-0.204 -2.717,0.242C-2.336,2.234 -0.648,5.673 -3.949,6.192C-5.23,6.394 -6.443,6.506 -7.592,7.136C-7.762,7.229 -7.873,7.329 -7.955,7.433C-10.748,7.247 -13.416,6.79 -16.047,5.504C-18.516,4.299 -20.656,2.775 -23.361,2.146C-14.738,1.578 -6.033,-1.391 0.32,-6.307C0.357,-6.3 0.387,-6.277 0.426,-6.283C3.217,-6.653 1.898,-3.961 1.367,-2.255M-24.377,6.437C-25.236,6.377 -26.107,6.246 -26.602,7.092C-26.734,7.321 -26.773,7.5 -26.771,7.636C-27.018,7.428 -27.504,7.125 -28.432,6.727C-28.932,6.511 -29.437,6.953 -29.18,7.476C-29.338,7.158 -29.555,6.934 -29.803,6.753C-29.65,6.757 -29.5,6.761 -29.348,6.74C-29.105,6.703 -29.121,6.374 -29.287,6.263C-30.041,5.751 -30.945,5.538 -31.736,5.061C-32.605,4.536 -33.359,3.818 -34.107,3.141C-34.957,2.374 -35.818,1.606 -36.822,1.106C-36.662,1.088 -36.506,1.063 -36.348,1.044C-32.338,2.073 -27.973,2.425 -23.57,2.154C-23.619,2.209 -23.621,2.307 -23.525,2.331C-20.121,3.241 -17.441,5.667 -14.201,6.985C-12.242,7.781 -10.111,8.098 -7.986,8.212C-7.912,8.353 -7.807,8.493 -7.68,8.629C-10.354,11.908 -21.094,6.662 -24.377,6.437M-30.785,-8.822C-30.725,-8.708 -30.572,-8.633 -30.445,-8.753C-26.16,-12.733 -20.562,-16.579 -17.783,-21.87C-15.633,-21.927 -12.746,-21.799 -14.318,-20.784C-14.77,-20.492 -14.648,-19.895 -14.178,-19.713C-12.535,-19.081 -11.035,-18.725 -9.477,-18.521C-14.291,-14.028 -17.354,-7.879 -22.654,-3.875C-25.543,-2.555 -28.404,-1.62 -30.879,-1.232C-30.918,-1.225 -30.945,-1.203 -30.963,-1.174C-33.371,-0.766 -35.787,-0.399 -38.203,-0.079C-34.881,-2.164 -32.721,-5.372 -30.785,-8.822M-22.152,-21.642C-21.02,-21.644 -19.889,-21.669 -18.76,-21.744C-20.586,-21.665 -19.768,-21.792 -18.322,-21.852C-20.145,-19.768 -21.768,-17.558 -23.748,-15.587C-25.939,-13.405 -28.297,-11.39 -30.543,-9.264C-28.104,-13.688 -25.941,-18.415 -22.152,-21.642M-6.209,-18.298C-8.533,-12.87 -14.709,-7.855 -21.062,-4.64C-16.273,-8.651 -13.264,-14.3 -8.605,-18.419C-7.84,-18.348 -7.047,-18.305 -6.209,-18.298M1.902,-18.329C1.484,-17.862 1.898,-17.244 2.479,-17.339C4.988,-17.742 5.959,-17.656 6.094,-17.291C6.092,-17.283 6.082,-17.281 6.08,-17.273C6.051,-17.116 5.992,-16.967 5.953,-16.813C5.318,-15.929 3.01,-14.472 1.869,-13.293C-2.367,-8.912 -7.152,-6.504 -13.029,-4.994C-17.26,-3.905 -21.551,-2.942 -25.865,-2.101C-22.018,-3.418 -18.406,-5.589 -15.123,-7.847C-11.48,-10.354 -6.902,-13.863 -5.48,-18.313C-4.221,-18.372 -2.73,-18.634 -1.568,-18.815C-0.838,-18.926 4.496,-21.238 1.902,-18.329M-39.268,-12.125C-39.326,-12.06 -39.318,-11.977 -39.287,-11.907C-40.438,-12.336 -41.643,-12.672 -42.873,-12.923C-40.51,-16.546 -37.744,-19.271 -34.256,-21.763C-36.445,-19.09 -36.982,-14.6 -39.268,-12.125M-39.219,-7.915C-40.654,-6.075 -42.119,-4.364 -44.008,-2.964C-48.109,0.076 -55.119,-3.495 -57.883,-7.779C-55.275,-5.141 -51.816,-3.398 -48.068,-3.201C-43.611,-2.964 -41.088,-7.521 -38.217,-10.252C-37.201,-9.702 -38.125,-9.316 -39.219,-7.915M-59.855,-9.199C-59.84,-9.302 -59.828,-9.408 -59.81,-9.508C-59.768,-9.733 -59.895,-9.899 -60.055,-9.978C-59.947,-9.995 -59.836,-9.999 -59.725,-9.987C-59.722,-9.979 -59.729,-9.97 -59.722,-9.964C-59.691,-9.921 -59.656,-9.881 -59.624,-9.839C-59.624,-9.807 -59.646,-9.788 -59.639,-9.753C-59.629,-9.713 -59.611,-9.672 -59.602,-9.63C-59.675,-9.476 -59.761,-9.329 -59.855,-9.199M-64.112,2.383C-66.058,4.197 -68.53,5.288 -70.59,6.961C-70.82,3.791 -72.368,0.898 -71.517,-2.365C-70.862,-4.869 -69.004,-7.405 -66.804,-9.146C-65.918,-9.627 -65.008,-10.166 -64.128,-10.762C-64.048,-10.796 -63.969,-10.845 -63.89,-10.876C-63.774,-10.92 -63.699,-11.004 -63.654,-11.098C-62.98,-11.582 -62.338,-12.094 -61.756,-12.644C-61.794,-12.528 -61.819,-12.402 -61.845,-12.279C-62.017,-12.286 -62.204,-12.182 -62.18,-11.987C-62.086,-11.219 -62.222,-10.741 -61.448,-10.307C-61.439,-10.302 -61.427,-10.306 -61.418,-10.302C-61.488,-10.204 -61.558,-10.104 -61.617,-9.985C-61.72,-9.772 -61.551,-9.574 -61.328,-9.609C-61.061,-9.652 -60.817,-9.735 -60.574,-9.824C-60.589,-9.793 -60.604,-9.768 -60.613,-9.731C-60.687,-9.373 -60.743,-9.016 -60.794,-8.661C-61.055,-8.676 -61.335,-8.821 -61.626,-9.152C-61.883,-9.446 -62.385,-9.059 -62.166,-8.736C-61.831,-8.243 -61.417,-7.832 -60.913,-7.677C-61.285,-4.01 -60.978,-0.542 -64.112,2.383M-78.526,-3.412C-78.275,-3.21 -78.166,-2.912 -78.295,-2.492C-78.489,-1.875 -78.759,-2.202 -78.945,-2.587C-78.681,-2.797 -78.582,-3.092 -78.526,-3.412M-66.953,5.649C-63.58,9.671 -64.554,13.664 -64.44,18.081C-66.956,15.754 -69.438,13.722 -71.563,10.86C-73.068,8.833 -74.394,6.608 -75.538,4.31C-75.754,3.41 -76.149,2.529 -76.746,1.682C-76.885,1.353 -77.036,1.027 -77.166,0.697C-76.555,0.427 -76.07,-0.164 -75.974,-0.93C-75.916,-1.399 -76.066,-1.807 -76.327,-2.147C-76.246,-2.13 -76.168,-2.11 -76.081,-2.1C-75.847,-2.074 -75.679,-2.308 -75.668,-2.513C-75.657,-2.671 -75.402,-2.763 -75.41,-2.986C-75.419,-3.265 -75.46,-3.45 -75.635,-3.669C-75.904,-4.009 -76.393,-3.785 -76.647,-3.539C-76.926,-3.673 -77.313,-3.339 -77.108,-3.04C-77.04,-2.939 -77.011,-2.825 -76.979,-2.71C-77.064,-2.755 -77.151,-2.794 -77.242,-2.82C-77.223,-3.678 -77.839,-4.462 -78.782,-4.683C-79.069,-4.751 -79.35,-4.598 -79.435,-4.313C-79.548,-3.938 -79.546,-3.581 -79.508,-3.22C-79.617,-3.168 -79.703,-3.065 -79.67,-2.913C-79.558,-2.367 -79.414,-1.609 -78.85,-1.343C-78.694,-1.272 -78.537,-1.265 -78.383,-1.284C-78.271,-0.876 -77.705,-0.807 -77.457,-1.165C-77.413,-1.23 -77.368,-1.351 -77.326,-1.466C-76.815,-0.892 -77.659,0.216 -78.435,-0.339C-78.527,-0.406 -78.627,-0.42 -78.722,-0.408C-78.754,-0.434 -78.78,-0.464 -78.815,-0.49C-79.236,-0.824 -79.81,-0.382 -79.63,0.031C-79.685,0.028 -79.738,0.014 -79.799,0.045C-80.277,0.292 -80.751,0.504 -81.225,0.701C-82.855,1.036 -84.343,1.325 -85.717,1.83C-88.197,2.048 -90.631,1.593 -93.076,0.584C-89.117,-0.001 -84.414,-2.155 -81.49,-5.402C-81.345,-5.35 -81.203,-5.297 -81.056,-5.249C-80.515,-5.06 -79.905,-4.72 -79.327,-4.862C-79.149,-4.905 -79.095,-5.103 -79.166,-5.253C-79.427,-5.795 -80.055,-5.902 -80.587,-6.053C-80.694,-6.086 -80.805,-6.096 -80.912,-6.12C-79.741,-7.619 -78.962,-9.324 -78.772,-11.194C-76.648,-8.187 -73.637,-5.906 -69.817,-7.651C-70.41,-6.814 -70.93,-5.962 -71.375,-5.214C-74.267,-0.356 -71.434,3.059 -71.65,8.145C-71.671,8.629 -71.047,8.853 -70.722,8.531C-69.583,7.4 -68.281,6.501 -66.969,5.618C-66.961,5.628 -66.961,5.639 -66.953,5.649M-72.968,12.994C-74.24,11.338 -74.911,9.416 -75.435,7.429C-75.366,7.012 -75.339,6.596 -75.333,6.183C-74.263,8.269 -73.046,10.278 -71.641,12.217C-69.815,14.737 -67.332,17.787 -64.388,19.165C-64.367,19.451 -64.336,19.74 -64.302,20.03C-67.541,18.103 -70.628,16.036 -72.968,12.994M-83.028,16.734C-79.793,12.784 -77.687,7.906 -77.435,2.886C-74.909,7.76 -78.432,12.975 -83.028,16.734M-90.175,21.088C-92.809,22.175 -92.443,21.273 -92.456,18.722C-92.47,15.855 -92.184,13.017 -91.49,10.232C-90.673,6.96 -88.707,4.263 -85.8,2.795C-84.24,2.644 -82.655,2.223 -81.052,1.465C-80.304,1.333 -79.565,1.179 -78.815,0.911C-78.438,1.328 -78.123,1.753 -77.847,2.179C-77.963,2.221 -78.067,2.301 -78.072,2.46C-78.329,10.117 -82.533,14.924 -87.477,19.766C-88.407,20.286 -89.32,20.734 -90.175,21.088M-87.728,-9.128C-85.352,-10.494 -82.582,-11.343 -80.318,-12.885C-80.188,-12.939 -80.059,-12.99 -79.927,-13.038C-79.809,-12.827 -79.685,-12.619 -79.561,-12.409C-79.698,-10.101 -80.569,-8.081 -82.043,-6.286C-82.187,-6.297 -82.332,-6.315 -82.476,-6.322C-82.723,-6.334 -82.837,-5.956 -82.605,-5.845C-82.56,-5.824 -82.511,-5.808 -82.466,-5.788C-82.859,-5.35 -83.279,-4.922 -83.744,-4.511C-85.512,-2.944 -93.455,1.941 -93.567,-2.746C-93.639,-5.748 -89.93,-7.859 -87.728,-9.128M-91.964,-13.411C-94.549,-14.213 -96.836,-15.559 -98.933,-17.248C-99.53,-17.729 -102.649,-20.623 -101.369,-20.809C-96.679,-21.495 -91.069,-23.63 -86.547,-21.359C-85.576,-20.872 -84.615,-20.13 -83.707,-19.271C-83.097,-18.257 -82.282,-17.299 -81.215,-16.412C-80.848,-15.908 -80.51,-15.403 -80.205,-14.904C-80.378,-14.977 -80.59,-14.887 -80.661,-14.702C-83.589,-16.29 -89.981,-20.15 -91.413,-17.538C-91.472,-17.431 -91.426,-17.266 -91.293,-17.244C-90.67,-17.131 -90.197,-17.351 -89.546,-17.367C-88.197,-17.397 -86.738,-16.671 -85.555,-16.134C-83.939,-15.399 -82.404,-14.512 -80.731,-13.939C-81.196,-13.755 -81.655,-13.519 -82.15,-13.25C-82.767,-13.017 -83.424,-12.755 -84.103,-12.466C-86.678,-11.834 -89.534,-12.656 -91.964,-13.411M-110.449,-23.773C-111.698,-24.881 -112.719,-26.568 -113.742,-27.962C-113.683,-27.963 -113.625,-27.986 -113.598,-28.054C-111.78,-32.977 -101.649,-28.729 -98.109,-28.364C-97.861,-28.338 -97.855,-28.691 -98.055,-28.767C-99.956,-29.496 -103.996,-30.831 -107.548,-31.028C-101.002,-31.265 -93.536,-27.646 -89.154,-23.446C-93.531,-24.144 -99.012,-22.12 -102.847,-21.778C-103.246,-21.741 -103.558,-21.331 -103.324,-20.946C-102.856,-20.179 -102.335,-19.462 -101.788,-18.777C-104.62,-20.545 -107.848,-21.468 -110.449,-23.773M-112.215,-30.224C-112.989,-29.766 -113.578,-29.101 -113.879,-28.153C-113.905,-28.189 -113.931,-28.228 -113.957,-28.262C-114.835,-29.421 -113.434,-29.922 -112.215,-30.224M-84.479,-26.446C-84.401,-28.053 -80.751,-37.69 -80.407,-37.046C-80.371,-36.978 -80.329,-36.916 -80.293,-36.847C-80.468,-36.885 -80.651,-36.691 -80.552,-36.502C-77.468,-30.63 -75.116,-24.46 -76.992,-18.116C-77.362,-18.53 -77.903,-18.576 -78.45,-18.387C-78.499,-18.707 -78.542,-19.024 -78.591,-19.342C-78.906,-21.313 -78.808,-23.047 -78.69,-25.015C-78.676,-25.242 -79.025,-25.343 -79.124,-25.132C-80.12,-23.031 -79.597,-20.499 -79.051,-18.095C-79.491,-17.809 -79.885,-17.397 -80.129,-16.943C-80.209,-16.932 -80.288,-16.899 -80.356,-16.849C-81.104,-17.972 -82.024,-19.008 -83.03,-19.937C-84.092,-21.765 -84.602,-23.877 -84.479,-26.446M-74.839,-23.545C-75.366,-22.145 -75.71,-20.664 -75.852,-19.108C-76.082,-18.464 -76.351,-17.867 -76.652,-17.342C-76.657,-17.377 -76.657,-17.411 -76.664,-17.443C-75.083,-21.786 -75.125,-26.875 -76.789,-31.257C-75.775,-29.536 -74.967,-27.713 -74.769,-25.456C-74.729,-24.978 -74.754,-24.307 -74.839,-23.545M-62.359,-34.151C-62.626,-33.077 -62.72,-32.03 -62.755,-30.839C-62.861,-27.403 -63.583,-25.15 -66.144,-22.737C-67.941,-21.043 -70.246,-20.137 -72.423,-19.036C-70.68,-20.516 -68.949,-22.016 -67.808,-23.938C-67.65,-24.204 -67.995,-24.422 -68.207,-24.248C-70.691,-22.23 -72.884,-19.752 -75.122,-17.415C-74.25,-19.329 -73.887,-21.761 -73.637,-23.213C-73.61,-23.368 -73.601,-23.519 -73.581,-23.675C-71.467,-28.421 -67.556,-31.977 -62.359,-34.151M-69.065,-32.211C-75.528,-30.649 -80.119,-39.297 -79.219,-45.031C-76.449,-40.839 -69.493,-40.012 -68.377,-34.917C-70.241,-35.669 -71.755,-36.928 -73.257,-38.499C-73.534,-38.791 -73.968,-38.353 -73.695,-38.059C-72.046,-36.278 -70.365,-34.797 -68.247,-33.911C-68.244,-33.865 -68.233,-33.827 -68.229,-33.78C-68.208,-33.288 -67.638,-33.255 -67.439,-33.604C-67.158,-33.511 -66.863,-33.437 -66.565,-33.366C-66.561,-33.355 -66.553,-33.344 -66.548,-33.333C-67.28,-32.866 -67.995,-32.373 -68.668,-31.835C-68.647,-32.044 -68.796,-32.275 -69.065,-32.211M-67.061,-34.482C-67.162,-34.507 -67.256,-34.541 -67.356,-34.568C-67.362,-34.765 -67.366,-34.963 -67.391,-35.149C-67.285,-34.925 -67.172,-34.704 -67.061,-34.482M-63.239,-52.565C-60.183,-54.441 -60.041,-46.305 -60.086,-44.499C-60.144,-42.223 -60.874,-40.304 -61.992,-38.609C-62.09,-38.472 -62.187,-38.336 -62.283,-38.199C-63.272,-36.808 -64.515,-35.566 -65.868,-34.402C-65.901,-34.469 -65.934,-34.541 -65.967,-34.609C-63.108,-37.647 -61.618,-41.536 -62.317,-45.695C-62.375,-46.042 -62.895,-45.891 -62.842,-45.55C-62.465,-43.148 -62.769,-41.121 -63.887,-38.961C-64.563,-37.655 -65.532,-36.532 -66.291,-35.283C-69.096,-41.433 -69.901,-48.472 -63.239,-52.565M-51.953,-47.112C-52.66,-43.946 -51.533,-40.926 -53.844,-37.966C-54.455,-37.183 -55.242,-36.581 -56.1,-36.053C-57.004,-35.627 -57.879,-35.166 -58.712,-34.674C-59.605,-34.244 -60.481,-33.804 -61.276,-33.292C-61.163,-33.876 -61.014,-34.46 -60.799,-35.038C-60.643,-35.464 -61.133,-35.953 -61.559,-35.797C-62.168,-35.576 -62.766,-35.325 -63.355,-35.057C-61.827,-36.5 -60.758,-38.157 -60.068,-39.949C-57.828,-42.866 -55.334,-45.526 -51.953,-47.112M-42.145,-37.083C-44.336,-34.971 -46.104,-33.188 -49.246,-31.963C-52.809,-30.577 -57.34,-30.19 -60.643,-32.41C-57.723,-33.759 -54.949,-35.245 -51.885,-36.303C-50.758,-36.69 -44.697,-37.522 -42.145,-37.083M-41.188,-35.967C-45.633,-30.28 -55.297,-26.223 -61.58,-31.015C-61.549,-31.365 -61.512,-31.715 -61.468,-32.066C-61.415,-32.057 -61.362,-32.057 -61.304,-32.071C-61.297,-31.991 -61.272,-31.911 -61.196,-31.846C-57.928,-29.099 -53.754,-29.327 -49.83,-30.453C-46.996,-31.266 -42.369,-33.526 -41.092,-36.659C-40.949,-36.481 -40.967,-36.253 -41.188,-35.967M-50.936,-20.828C-51.867,-16.901 -55.85,-14.677 -59.359,-13.594C-59.439,-13.858 -59.695,-14.075 -59.975,-14.059C-60.207,-14.047 -60.394,-13.982 -60.581,-13.916C-59.722,-14.989 -59.122,-16.164 -58.98,-17.436C-58.947,-17.739 -59.244,-17.929 -59.5,-17.955C-62.857,-18.317 -66.009,-18.635 -69.352,-18.032C-71.603,-17.625 -73.718,-16.833 -75.791,-15.926C-75.695,-16.032 -75.597,-16.135 -75.496,-16.239C-75.43,-16.266 -75.383,-16.318 -75.352,-16.394C-75.17,-16.579 -74.987,-16.759 -74.798,-16.941C-71.053,-18.248 -67.319,-19.967 -64.414,-22.698C-62.133,-24.842 -61.878,-27.357 -61.668,-29.97C-59.938,-28.378 -57.901,-27.603 -55.758,-27.441C-59.551,-25.715 -62.987,-22.625 -62.451,-18.62C-62.393,-18.196 -61.759,-18.163 -61.762,-18.62C-61.784,-23.475 -56.014,-26.446 -51.953,-27.508C-50.057,-28.005 -50.678,-21.912 -50.936,-20.828M-41.701,-23.546C-41.965,-23.459 -42.514,-21.274 -42.738,-20.857C-43.172,-20.047 -43.832,-19.407 -44.488,-18.784C-45.74,-17.593 -47.379,-16.783 -48.926,-16.055C-50.188,-15.463 -51.506,-14.995 -52.838,-14.563C-49.467,-18.007 -46.518,-21.958 -41.701,-23.546M-61.35,-11.601C-61.384,-11.656 -61.418,-11.714 -61.445,-11.778C-61.307,-11.869 -61.178,-11.978 -61.053,-12.097C-61.146,-11.931 -61.245,-11.766 -61.35,-11.601M-55.885,-13.617C-56.043,-13.589 -56.197,-13.556 -56.352,-13.522C-55.881,-13.727 -55.422,-13.962 -54.982,-14.238C-55.111,-14.084 -55.242,-13.929 -55.367,-13.772C-55.541,-13.721 -55.713,-13.668 -55.885,-13.617M-59.415,-12.824C-59.039,-12.824 -58.662,-12.851 -58.287,-12.913C-58.367,-12.879 -58.448,-12.84 -58.525,-12.802C-58.564,-12.79 -58.602,-12.779 -58.637,-12.768C-58.662,-12.759 -58.665,-12.738 -58.684,-12.728C-59.025,-12.551 -59.339,-12.343 -59.629,-12.11C-59.535,-12.343 -59.466,-12.579 -59.415,-12.824M-61.892,-16.015C-62.027,-14.802 -62.543,-13.835 -63.287,-13.066C-63.557,-12.832 -63.818,-12.59 -64.101,-12.368C-65.829,-11.11 -68.251,-10.557 -70.276,-10.392C-73.852,-10.099 -76.171,-11.237 -78.472,-13.571C-78.456,-13.597 -78.442,-13.624 -78.43,-13.655C-78.393,-13.67 -78.354,-13.685 -78.318,-13.702C-74.822,-9.149 -68.523,-13.684 -64.362,-15.134C-63.852,-15.312 -64.068,-16.122 -64.588,-15.948C-68.408,-14.661 -74.23,-10.258 -77.725,-13.957C-74.158,-15.496 -70.717,-16.933 -66.748,-17.372C-65.242,-17.537 -63.699,-17.36 -62.202,-17.215C-59.808,-16.985 -60.604,-15.704 -61.673,-14.576C-61.515,-15.023 -61.413,-15.502 -61.371,-16.015C-61.345,-16.354 -61.857,-16.342 -61.892,-16.015M-78.153,-16.147C-78.055,-16.386 -77.945,-16.623 -77.853,-16.865C-77.886,-16.589 -77.995,-16.31 -78.145,-16.063C-78.147,-16.091 -78.15,-16.118 -78.153,-16.147M-79.108,-14.714C-78.987,-14.655 -78.857,-14.612 -78.725,-14.587C-78.83,-14.538 -78.939,-14.488 -79.044,-14.438C-79.069,-14.531 -79.08,-14.622 -79.108,-14.714M-69.627,-8.922C-72.94,-7.197 -75.666,-8.764 -77.708,-11.194C-75.485,-9.668 -71.688,-9.486 -69.596,-9.677C-69.018,-9.731 -68.425,-9.829 -67.834,-9.964C-67.892,-9.911 -67.95,-9.857 -68.008,-9.801C-68.545,-9.499 -69.087,-9.204 -69.627,-8.922M-39.236,-10.672C-39.164,-10.648 -39.104,-10.625 -39.035,-10.599C-41.314,-8.414 -43.055,-5.557 -46.08,-4.361C-50.418,-2.643 -55.461,-6.167 -58.473,-9.337C-58.367,-9.62 -58.284,-9.905 -58.24,-10.179C-58.187,-10.509 -58.322,-10.76 -58.637,-10.88C-58.814,-10.95 -58.994,-10.999 -59.173,-11.035C-58.34,-11.587 -57.412,-11.993 -56.43,-12.297C-56.574,-12.076 -56.727,-11.856 -56.861,-11.632C-56.973,-11.441 -56.738,-11.173 -56.541,-11.313C-55.934,-11.74 -55.357,-12.205 -54.801,-12.692C-49.691,-13.626 -43.461,-12.135 -39.236,-10.672M-49.229,20.737C-49.504,22.56 -50.027,24.355 -50.498,26.132C-50.67,26.776 -50.725,27.482 -50.824,28.001C-50.328,21.726 -49.113,14.934 -51.719,9.127C-49.314,12.685 -48.529,16.077 -49.229,20.737M-52.309,28.018C-55.43,24.574 -57.914,21.573 -58.002,16.672C-58.055,13.625 -57.008,10.644 -55.34,8.15C-55.125,8.259 -54.879,8.31 -54.584,8.262C-54.57,8.261 -54.563,8.253 -54.551,8.252C-54.697,9.293 -54.629,10.421 -54.604,11.163C-54.496,14.393 -53.91,17.876 -53.014,20.977C-52.965,21.136 -52.719,21.106 -52.719,20.936C-52.744,16.261 -54.646,11.993 -53.43,7.505C-53.346,7.39 -53.27,7.271 -53.203,7.143C-48.971,14.257 -52.227,20.995 -51.555,28.517C-51.549,28.606 -51.502,28.662 -51.459,28.716C-51.664,28.639 -51.936,28.426 -52.309,28.018M-55.85,7.68C-55.984,7.742 -56.111,7.821 -56.236,7.905C-56.148,7.748 -56.063,7.591 -55.998,7.43C-55.953,7.519 -55.902,7.602 -55.85,7.68M-53.973,6.162C-54.07,6.544 -54.234,6.919 -54.551,7.154C-54.797,7.335 -55.006,7.281 -55.178,7.132C-55.07,6.8 -55.076,6.387 -54.855,6.157C-54.705,5.995 -54.313,6.069 -53.973,6.162M-73.005,22.266C-73.044,22.009 -72.986,21.702 -72.939,21.494C-72.935,21.477 -72.946,21.469 -72.943,21.453C-72.9,21.471 -72.859,21.492 -72.816,21.506C-72.94,21.765 -73.009,22.032 -73.005,22.266M-71.866,21.735C-71.705,21.545 -71.84,21.533 -71.764,21.731C-71.673,21.96 -71.61,22.203 -71.581,22.447C-71.574,22.501 -71.576,22.569 -71.579,22.632C-71.93,22.695 -72.288,22.752 -72.632,22.702C-72.73,22.689 -72.781,22.633 -72.839,22.581C-72.777,22.608 -72.709,22.613 -72.641,22.569C-72.31,22.353 -72.122,22.033 -71.866,21.735M-72.923,22.526C-72.918,22.531 -72.914,22.537 -72.907,22.543C-72.912,22.536 -72.919,22.532 -72.923,22.526M-71.139,25.194C-71.126,25.45 -71.049,25.699 -70.862,25.903C-70.816,25.951 -70.75,25.963 -70.687,25.974C-70.701,26.377 -70.619,26.76 -70.267,27.203C-70.089,27.423 -69.765,27.355 -69.579,27.203C-68.906,26.648 -68.598,25.981 -68.632,25.342C-68.583,25.315 -68.527,25.296 -68.491,25.261C-68.285,25.057 -68.033,24.759 -67.788,24.67C-67.65,24.619 -67.705,24.619 -67.603,24.73C-67.371,24.978 -67.305,25.678 -67.302,26.119C-67.297,26.644 -67.353,27.231 -67.614,27.695C-67.672,27.799 -67.668,27.787 -67.749,27.866C-67.727,27.845 -67.867,27.912 -67.792,27.903C-68.021,27.933 -68.25,27.671 -68.421,27.488C-68.821,27.056 -69.417,27.684 -69.058,28.123C-68.775,28.466 -68.414,28.757 -68.03,28.869C-67.99,28.921 -67.953,28.977 -67.913,29.031C-67.998,29.085 -68.063,29.17 -68.043,29.297C-66.88,36.268 -66.976,41.746 -71.25,47.618C-71.373,47.784 -71.125,47.928 -70.989,47.821C-65.596,43.57 -65.92,35.845 -67.395,29.755C-65.265,32.978 -64.129,36.908 -64.869,40.763C-65.043,41.671 -70.475,49.482 -70.336,49.67C-72.637,46.574 -75.072,43.695 -76.559,40.087C-77.915,36.809 -76.542,33.408 -74.646,30.323C-73.487,29.37 -72.604,28.111 -72.083,26.546C-71.754,26.08 -71.434,25.628 -71.139,25.194M-69.825,26.067C-69.912,25.711 -69.819,25.317 -69.785,24.921C-69.676,25.041 -69.588,25.177 -69.565,25.348C-69.531,25.618 -69.657,25.857 -69.825,26.067M-68.831,22.314C-68.866,22.326 -68.901,22.328 -68.938,22.335C-68.969,22.19 -69.003,22.045 -69.021,21.902C-69.021,21.892 -69.023,21.874 -69.025,21.86C-69.021,21.845 -69.017,21.826 -69.016,21.819C-68.971,21.772 -68.94,21.714 -68.94,21.646L-68.94,21.629C-68.94,21.598 -68.958,21.578 -68.966,21.553C-68.935,21.553 -68.94,21.56 -68.837,21.587C-68.671,21.629 -68.477,21.727 -68.366,21.812C-68.226,21.923 -68.164,22.009 -68.131,22.072C-68.154,22.077 -68.241,22.13 -68.289,22.153C-68.452,22.233 -68.659,22.259 -68.831,22.314M8.4,-18.483C5.271,-18.986 3.443,-17.44 4.787,-20.832C4.953,-21.252 4.459,-21.69 4.061,-21.561C2.664,-21.107 -3.035,-19.809 -7.203,-19.586C-7.129,-19.643 -7.066,-19.709 -6.992,-19.763C-6.66,-20.005 -6.98,-20.564 -7.316,-20.319C-7.641,-20.082 -7.926,-19.806 -8.234,-19.554C-10.799,-19.538 -12.473,-20.065 -11.553,-21.702C-11.428,-21.923 -11.447,-22.233 -11.645,-22.411C-13.262,-23.885 -22.553,-23.12 -22.34,-23.57C-22.186,-23.902 -22.365,-24.366 -22.787,-24.348C-26.648,-24.177 -25.906,-22.415 -24.078,-26.459C-23.93,-26.785 -24.17,-27.192 -24.559,-27.085C-32.289,-24.954 -39.453,-20.158 -43.297,-13.004C-45.5,-13.426 -47.76,-13.632 -49.859,-13.779C-50.451,-13.821 -51.131,-13.858 -51.855,-13.875C-46.518,-15.526 -41.305,-18.239 -40.828,-24.067C-40.803,-24.379 -41.121,-24.52 -41.377,-24.486C-41.568,-24.459 -41.756,-24.404 -41.943,-24.366C-35.184,-27.439 -27.896,-31.369 -24.92,-38.142C-24.783,-38.456 -25.23,-38.735 -25.391,-38.417C-29.385,-30.47 -38.777,-26.706 -46.434,-23.222C-46.898,-23.012 -46.496,-22.339 -46.037,-22.544C-45.932,-22.589 -45.824,-22.638 -45.719,-22.684C-46.994,-21.831 -48.172,-20.797 -49.277,-19.826C-49.813,-19.351 -50.367,-18.859 -50.922,-18.355C-48.984,-21.585 -49.613,-24.614 -49.906,-28.324C-45.432,-29.906 -41.248,-33.309 -39.061,-36.778C-38.822,-37.153 -39.076,-37.558 -39.438,-37.703C-43.557,-39.352 -48.445,-38.875 -52.943,-37.333C-52.779,-37.51 -52.609,-37.676 -52.457,-37.869C-50.033,-40.956 -51.938,-44.47 -50.75,-47.866C-50.639,-48.185 -51.004,-48.586 -51.336,-48.452C-54.76,-47.069 -57.275,-44.671 -59.482,-41.944C-58.609,-45.843 -59.253,-50.2 -60.797,-54.315C-60.907,-54.608 -61.223,-54.876 -61.561,-54.749C-69.617,-51.697 -70.714,-44.441 -68.34,-37.527C-70.828,-41.089 -77.228,-42.365 -78.945,-46.458C-79.12,-46.875 -79.694,-46.93 -79.85,-46.458C-81.923,-40.161 -76.592,-29.612 -69.016,-31.536C-70.833,-30.018 -72.385,-28.238 -73.558,-26.237C-74.09,-30.929 -77.587,-34.855 -80.119,-38.788C-80.216,-38.94 -80.391,-39.068 -80.583,-39.054C-80.661,-39.047 -80.74,-39.043 -80.817,-39.037C-81.076,-39.02 -81.222,-38.885 -81.319,-38.655C-83.759,-32.875 -86.369,-26.534 -84.636,-21.289C-85.093,-21.64 -85.552,-21.978 -86.008,-22.282C-86.731,-22.765 -87.535,-23.08 -88.383,-23.288C-88.356,-23.375 -88.356,-23.471 -88.432,-23.561C-89.124,-24.391 -89.934,-25.187 -90.829,-25.943C-89.581,-25.181 -88.282,-24.505 -87.105,-23.847C-86.819,-23.685 -86.568,-24.116 -86.848,-24.289C-90.277,-26.396 -93.699,-28.31 -95.292,-32.245C-96.271,-34.66 -96.285,-37.673 -96.004,-40.534C-94.827,-35.022 -91.974,-29.905 -87.352,-26.438C-87.086,-26.241 -86.837,-26.646 -87.021,-26.867C-91.137,-31.815 -94.591,-36.289 -95.803,-42.232C-95.676,-43.148 -95.536,-44.036 -95.396,-44.857C-94.906,-47.746 -93.716,-45.006 -92.223,-43.857C-87.627,-40.326 -86.639,-36.59 -85.961,-30.938C-85.9,-30.432 -85.12,-30.407 -85.151,-30.938C-85.254,-32.774 -85.429,-34.563 -85.824,-36.299C-85.634,-36.163 -85.433,-36.034 -85.217,-35.917C-84.962,-35.778 -84.649,-36.141 -84.893,-36.337C-85.54,-36.85 -86.003,-37.478 -86.344,-38.174C-86.461,-38.514 -86.594,-38.85 -86.734,-39.184C-87.62,-42.231 -86.534,-46.282 -85.317,-49.517C-86.384,-45.531 -86.466,-41.185 -84.848,-37.903C-84.697,-37.599 -84.293,-37.829 -84.339,-38.118C-85.387,-44.475 -85.109,-51.017 -81.637,-56.678C-81.578,-56.773 -81.632,-56.85 -81.71,-56.879C-81.183,-57.445 -80.63,-57.697 -80.113,-57.262C-76.393,-54.136 -74.928,-50.246 -74.705,-45.724C-75.032,-45.129 -75.337,-44.513 -75.61,-43.868C-75.746,-43.547 -75.291,-43.26 -75.13,-43.589C-74.996,-43.865 -74.834,-44.129 -74.681,-44.396C-74.681,-44.25 -74.669,-44.109 -74.672,-43.964C-74.678,-43.679 -74.258,-43.629 -74.182,-43.897C-74.01,-44.507 -73.906,-45.108 -73.843,-45.701C-73.146,-46.672 -72.352,-47.576 -71.48,-48.37C-70.05,-49.668 -67.932,-50.221 -66.65,-51.589C-66.489,-51.761 -66.601,-52.05 -66.843,-52.052C-68.658,-52.076 -70.5,-50.493 -71.819,-49.372C-72.588,-48.716 -73.215,-47.985 -73.772,-47.207C-73.914,-51.769 -76.961,-55.766 -80.515,-58.717C-80.704,-58.873 -80.935,-58.883 -81.122,-58.717C-84.071,-56.098 -88.341,-47.759 -88.19,-41.724C-90.061,-43.994 -93.115,-45.378 -94.867,-47.75C-95.093,-48.053 -95.604,-48.061 -95.713,-47.64C-95.901,-46.92 -96.068,-46.192 -96.22,-45.461C-96.246,-45.901 -96.264,-46.348 -96.268,-46.806C-96.271,-47.043 -96.632,-47.043 -96.634,-46.806C-96.649,-45.826 -96.612,-44.841 -96.524,-43.862C-97.186,-39.922 -97.236,-35.894 -96.19,-31.998C-95.739,-30.319 -94.741,-28.999 -93.5,-27.885C-100.154,-32.118 -109.583,-33.965 -115.689,-29.536C-115.996,-29.312 -116.068,-28.93 -115.805,-28.637C-113.807,-26.413 -112.328,-23.945 -110.075,-21.962C-107.604,-19.789 -103.811,-18.688 -100.87,-17.409C-100.781,-17.37 -100.688,-17.387 -100.603,-17.426C-98.661,-15.406 -96.313,-13.833 -93.571,-12.83C-91.316,-12.005 -89.095,-11.494 -86.742,-11.23C-91.666,-8.695 -96.372,-4.801 -93.899,0.231C-94.559,-0.075 -95.218,-0.419 -95.881,-0.797C-96.57,-1.192 -101.453,-4.532 -100.479,-4.796C-97.958,-5.479 -95.571,-6.47 -93.005,-7.022C-92.396,-7.153 -92.658,-8.069 -93.264,-7.955C-96.351,-7.366 -99.24,-6.178 -102.274,-5.38C-102.632,-5.286 -102.797,-4.775 -102.502,-4.516C-98.058,-0.621 -93.068,2.591 -87.76,2.832C-88.993,3.623 -90.122,4.759 -91.168,6.499C-93.914,11.068 -93.556,17.263 -93.416,22.358C-93.405,22.721 -93.095,22.907 -92.762,22.855C-91.848,22.713 -90.855,22.431 -89.826,22.037C-89.878,22.089 -89.93,22.141 -89.984,22.191C-90.027,22.233 -90.043,22.284 -90.047,22.331C-92.174,23.797 -94.007,25.471 -95.204,26.921C-95.425,27.189 -95.413,27.474 -95.204,27.742C-94.877,28.163 -94.494,28.562 -94.075,28.938C-94.055,28.972 -94.046,29.01 -94.012,29.036C-93.943,29.082 -93.858,29.121 -93.787,29.167C-92.302,30.423 -90.369,31.412 -88.237,32.037C-89.763,33.524 -91.482,34.676 -93.12,36.041C-94.085,36.849 -96.089,32.584 -96.481,31.762C-98.5,27.55 -99.701,21.502 -96.705,17.512C-96.696,17.498 -96.702,17.491 -96.696,17.477C-94.599,15.189 -93.301,12.228 -93.353,8.382C-93.358,8.053 -93.852,8.055 -93.864,8.382C-94.192,17.106 -101.214,20.973 -108.858,22.793C-110.822,23.261 -110.613,23.174 -110.802,21.304C-111.165,17.705 -111.259,15.924 -108.933,13.045C-105.754,9.118 -100.913,5.287 -95.74,4.89C-95.063,4.837 -95.052,3.784 -95.74,3.824C-95.846,3.829 -95.944,3.854 -96.049,3.863C-96.067,3.774 -96.144,3.692 -96.262,3.711C-100.486,4.401 -108.864,4.851 -111.836,0.916C-108.77,1.162 -105.65,1.268 -102.594,1.686C-102.77,1.838 -102.822,2.154 -102.563,2.313C-101.922,2.708 -100.457,3.371 -99.849,2.617C-99.738,2.482 -99.781,2.31 -99.946,2.246C-100.219,2.143 -100.488,2.183 -100.776,2.176C-101.198,2.165 -101.606,1.991 -101.973,1.783C-100.059,2.074 -98.173,2.496 -96.349,3.185C-95.736,3.417 -95.484,2.445 -96.081,2.21C-101.346,0.143 -107.246,0.331 -112.794,-0.181C-113.212,-0.22 -113.389,0.273 -113.236,0.587C-111.049,5.079 -104.645,5.381 -99.637,4.705C-102.522,5.814 -105.036,7.805 -107.396,9.887C-109.109,11.398 -110.574,13.245 -111.685,15.236C-113.25,18.046 -111.387,20.698 -111.845,23.65C-111.904,24.027 -111.634,24.325 -111.245,24.249C-106.808,23.391 -102.201,21.924 -98.77,19.337C-101.431,24.743 -97.8,34.491 -93.618,37.463C-93.45,37.584 -93.163,37.539 -93.029,37.388C-91.304,35.445 -88.793,34.556 -87.623,32.189C-83.788,33.18 -79.493,33.05 -76.302,31.392C-77.362,33.33 -78.142,35.403 -78.38,37.754C-78.869,42.583 -73.376,47.889 -70.736,51.355C-70.464,51.712 -69.823,51.857 -69.584,51.355C-67.476,46.946 -63.438,43.587 -63.392,38.403C-63.37,36.05 -64.04,33.038 -65.409,30.707C-59.473,36.6 -51.85,37.518 -44.453,32.758C-44.215,32.605 -44.365,32.231 -44.645,32.301C-48.91,33.381 -52.148,36.12 -56.844,34.965C-60.469,34.076 -64.28,31.37 -66.654,28.564C-66.711,28.497 -66.774,28.473 -66.838,28.475C-66.294,27.878 -66.153,26.872 -66.148,26.119C-66.141,25.351 -66.273,24.323 -66.906,23.798C-66.939,23.773 -66.973,23.761 -67.005,23.739C-66.716,23.46 -66.431,23.181 -66.126,22.922C-65.737,22.591 -65.25,22.453 -64.96,22.016C-64.857,21.86 -64.971,21.694 -65.116,21.633C-65.727,21.376 -66.403,21.787 -66.944,22.34C-66.875,22.08 -66.902,21.783 -67.068,21.457C-67.471,20.68 -68.596,20.154 -69.44,20.362C-70.561,20.636 -70.475,22.24 -69.789,22.995C-69.668,23.224 -69.455,23.402 -69.113,23.449C-68.596,23.521 -67.996,23.377 -67.55,23.086C-67.652,23.241 -67.739,23.385 -67.804,23.519C-68.277,23.566 -68.729,23.871 -69.085,24.241C-69.292,23.993 -69.553,23.76 -69.899,23.57C-70.096,23.461 -70.365,23.479 -70.524,23.651C-70.791,23.944 -71.03,24.373 -71.114,24.808C-71.22,24.666 -71.425,24.589 -71.557,24.751C-71.865,25.13 -72.169,25.508 -72.474,25.887C-72.514,25.912 -72.56,25.925 -72.588,25.974C-72.668,26.106 -72.761,26.221 -72.843,26.349C-73.236,26.843 -73.62,27.338 -73.994,27.839C-77.554,31.753 -83.252,32.626 -88.315,31.031C-82.297,31.899 -74.762,30.149 -73.004,25.029C-72.899,24.728 -73.364,24.608 -73.473,24.899C-76.032,31.703 -86.985,30.797 -92.813,28.785C-93.562,28.162 -94.055,27.384 -93.268,26.585C-91.86,25.159 -90.208,23.995 -88.532,22.908C-84.475,20.279 -79.072,18.292 -74.864,21.615C-74.572,21.845 -74.215,21.496 -74.457,21.207C-77.173,17.922 -81.312,18.105 -85.284,19.718C-83.063,18.298 -80.912,16.507 -79.178,14.523C-78.961,15.379 -78.329,16.454 -78.172,16.68C-77.035,18.31 -75.358,20.273 -73.457,21.238C-73.484,21.267 -73.52,21.284 -73.538,21.328C-73.747,21.863 -73.99,22.36 -73.787,22.936C-73.632,23.373 -73.226,23.618 -72.786,23.688C-72.235,23.776 -71.669,23.671 -71.124,23.585C-70.672,23.514 -70.556,23.189 -70.536,22.782C-70.504,22.131 -70.67,21.138 -71.267,20.756C-71.778,20.429 -72.271,20.71 -72.604,21.157C-74.316,20.385 -80.113,15.329 -78.34,13.703C-78.282,13.651 -78.299,13.567 -78.346,13.508C-77.189,12.016 -76.296,10.441 -75.789,8.851C-75.269,10.79 -74.559,12.677 -73.215,14.468C-70.836,17.638 -67.183,19.732 -63.826,21.684C-63.355,21.957 -62.856,21.511 -62.958,21.016C-64.188,15.043 -61.715,10.042 -66.162,5.076C-64.64,4.051 -63.145,2.996 -61.905,1.586C-59.636,-1 -60.17,-4.477 -60.005,-7.692C-59.968,-7.704 -59.931,-7.706 -59.895,-7.719C-59.583,-7.831 -59.337,-8.038 -59.115,-8.276C-57.414,-4.585 -52.889,-1.233 -49.078,-0.777C-48.904,-0.756 -48.744,-0.757 -48.574,-0.748C-48.619,-0.157 -48.613,0.426 -48.756,1.013C-48.949,1.802 -49.482,2.531 -49.973,3.158C-50.65,4.018 -51.482,4.762 -52.119,5.654C-52.133,5.652 -52.145,5.652 -52.158,5.651C-52.271,5.634 -52.305,5.762 -52.258,5.842C-52.277,5.87 -52.299,5.894 -52.316,5.919C-52.418,6.077 -52.219,6.269 -52.066,6.172C-51.986,6.122 -51.9,6.063 -51.814,6.003C-49.969,6.498 -48.09,6.217 -46.225,6.796C-44.189,7.428 -42.43,8.727 -40.363,9.275C-40.156,9.33 -40.037,9.041 -40.221,8.931C-42.055,7.809 -44.002,6.813 -46.018,6.054C-47.826,5.372 -49.582,5.784 -51.406,5.709C-51.244,5.587 -51.076,5.455 -50.906,5.314C-46.32,3.391 -42.93,3.168 -38.385,5.412C-35.074,7.046 -32.158,9.482 -29.066,11.48C-27.75,12.331 -34.34,14.29 -33.195,13.934C-36.072,14.828 -39.209,14.465 -42.068,13.788C-46.264,12.793 -48.881,8.57 -52.488,6.48C-52.645,6.39 -52.799,6.477 -52.869,6.607C-52.916,6.607 -52.949,6.63 -52.992,6.65C-52.91,6.407 -52.852,6.161 -52.818,5.922C-52.779,5.629 -52.885,5.34 -53.197,5.254C-53.934,5.054 -54.881,4.81 -55.543,5.332C-55.797,5.535 -55.93,5.839 -55.986,6.161C-56.172,6.186 -56.342,6.338 -56.291,6.582C-56.273,6.666 -56.25,6.752 -56.227,6.837C-57.029,8.063 -58.27,9.121 -59.386,10.023C-60.031,10.543 -60.723,11.028 -61.451,11.427C-61.641,11.533 -62.705,12.118 -62.942,11.981C-63.086,11.899 -63.276,12.002 -63.274,12.172C-63.27,13.819 -60.503,11.857 -60.104,11.58C-59.352,11.061 -58.439,10.406 -57.64,9.653C-58.717,11.821 -59.012,15.042 -59.105,16.672C-59.449,22.717 -55.012,26.636 -51.396,30.831C-51.102,31.17 -50.5,30.984 -50.4,30.57C-48.672,23.446 -45.98,15.553 -50.201,9.378C-47.455,11.937 -44.691,14.255 -40.84,15.188C-36.064,16.344 -31.205,15.005 -27.418,12.04C-27.164,11.841 -27.275,11.427 -27.518,11.281C-33.277,7.788 -41.873,-0.386 -48.984,3.321C-47.992,2.023 -47.357,0.542 -47.938,-0.714C-42.582,-0.761 -39.545,-5.861 -36.369,-9.701C-36.139,-9.976 -36.154,-10.374 -36.48,-10.574C-36.824,-10.784 -37.189,-10.963 -37.551,-11.145C-37.627,-11.333 -37.852,-11.472 -38.072,-11.412C-38.393,-11.558 -38.725,-11.684 -39.059,-11.812C-39.049,-11.817 -39.039,-11.812 -39.031,-11.82C-37.441,-13.047 -36.678,-14.868 -35.877,-16.664C-34.824,-19.027 -33.543,-20.904 -32.07,-23.008C-32.014,-23.088 -32.035,-23.162 -32.074,-23.22C-28.889,-25.173 -23.17,-28.155 -27.385,-22.747C-27.693,-22.35 -27.307,-21.694 -26.809,-22.001C-22.852,-24.472 -23.307,-24.085 -24.01,-22.315C-24.141,-21.988 -23.812,-21.643 -23.498,-21.643C-23.437,-21.642 -23.381,-21.644 -23.322,-21.643C-30.08,-15.408 -31.424,-4.807 -39.533,0.096C-41.135,0.299 -42.74,0.488 -44.342,0.651C-44.832,0.701 -44.85,1.405 -44.342,1.428C-42.176,1.527 -40.012,1.43 -37.854,1.214C-36.299,2.145 -35.039,3.43 -33.688,4.631C-33.088,5.164 -32.354,5.785 -31.555,6.221C-32.117,6.187 -32.695,6.216 -33.209,6.219C-33.867,6.223 -33.852,7.183 -33.209,7.229C-31.643,7.693 -30.078,8.157 -28.512,8.62C-28.012,8.882 -27.506,8.364 -27.758,7.867C-27.059,8.349 -26.361,8.83 -25.66,9.314C-25.221,9.568 -24.621,9.04 -24.934,8.587C-25.873,7.226 -20.029,8.657 -19.941,8.684C-18.402,9.157 -16.865,9.537 -15.303,9.927C-14.887,10.032 -14.387,10.163 -13.857,10.296C-13.855,10.344 -13.863,10.392 -13.828,10.44C-11.654,13.303 -9.672,16.203 -8.004,19.374C-8.174,19.261 -8.332,19.133 -8.51,19.028C-9.088,18.635 -9.758,18.335 -10.447,18.076C-10.359,17.961 -10.309,17.814 -10.387,17.67C-13.607,11.653 -26.963,11.883 -31.684,15.593C-31.854,15.724 -31.625,16.017 -31.455,15.889C-26.629,12.239 -15.434,13.21 -11.289,17.779C-11.84,17.596 -12.393,17.426 -12.91,17.259C-13.527,17.06 -13.918,17.862 -13.514,18.297C-12.945,18.908 -12.457,19.386 -11.791,19.898C-10.777,20.491 -9.961,21.275 -9.346,22.251C-10.631,21.314 -11.836,20.287 -12.969,19.171C-13.395,18.774 -13.945,19.272 -13.73,19.76C-12.758,21.98 -11.318,23.853 -10.076,25.924C-9.18,27.882 -8.789,29.912 -8.902,32.009C-8.896,32.417 -9.205,34.454 -9.229,35.753C-11.982,29.389 -18.832,25.151 -24.756,21.863C-27.342,19.349 -30.35,17.369 -34.102,16.474C-34.359,16.412 -34.461,16.787 -34.211,16.871C-33.135,17.223 -32.133,17.652 -31.189,18.136C-31.285,18.197 -31.348,18.319 -31.279,18.45C-28.238,24.155 -25.094,35.49 -17.395,36.531C-17.17,36.561 -17.027,36.289 -17.236,36.156C-20.955,33.753 -23.512,31.519 -25.852,27.658C-27.678,24.65 -29.102,21.407 -30.812,18.331C-23.855,22.072 -20.176,29.162 -15.543,35.581C-15.254,35.981 -14.588,35.609 -14.871,35.19C-15.725,33.928 -16.574,32.62 -17.439,31.308C-14.23,34.049 -11.238,36.898 -10.08,41.159C-9.977,41.535 -9.451,41.435 -9.426,41.07C-9.1,36.2 -14.998,32.42 -18.559,29.622C-20.086,27.35 -21.703,25.123 -23.518,23.142C-17.119,26.923 -9.66,32.2 -9.063,39.886C-9.014,40.517 -8.014,40.502 -8.086,39.886C-8.174,39.162 -8.328,38.467 -8.514,37.789C-8.488,37.785 -8.463,37.78 -8.439,37.774C-8.209,37.73 -8.068,37.495 -8.061,37.28C-7.914,33.143 -7.375,29.223 -9.156,25.385C-9.941,23.696 -11.32,22.204 -12.289,20.61C-11.611,21.723 -10.084,23.032 -8.645,24.07C-8.283,24.332 -7.691,23.984 -7.727,23.542C-7.875,21.76 -8.869,20.679 -10.049,19.676C-8.916,20.216 -7.855,20.879 -6.822,21.79C-6.357,22.202 -5.707,21.691 -5.977,21.14C-7.889,17.255 -10.219,13.82 -12.957,10.505C-10.828,10.973 -8.332,11.241 -6.963,9.873C-6.832,9.74 -6.721,9.608 -6.625,9.476C-6.354,9.653 -6.125,9.785 -6.029,9.838C-5.371,10.218 -4.785,9.212 -5.436,8.824C-5.641,8.7 -5.844,8.576 -6.049,8.453C-6.016,8.389 -5.975,8.328 -5.937,8.269C-5.711,8.271 -5.484,8.272 -5.258,8.271C-4.854,8.266 -4.822,7.755 -5.123,7.61C-4.984,7.558 -4.83,7.513 -4.646,7.48C-3.027,7.199 -2.225,7.057 -0.768,6.276C2.107,4.734 -4.592,0.288 2.43,1.269C2.857,1.329 3.17,0.97 2.975,0.559C1.67,-2.206 3.73,-4.634 3.277,-7.383C3.232,-7.656 2.904,-7.795 2.664,-7.732C-0.244,-6.983 4.207,-11.319 5.051,-12.558C5.773,-13.62 6.213,-14.652 6.443,-15.798C7.105,-16.374 7.791,-16.924 8.543,-17.396C8.938,-17.644 8.941,-18.395 8.4,-18.483" style="fill:rgb(89,86,85);fill-rule:nonzero;"/>
            </g>
            <g transform="matrix(1,0,0,1,299.374,417.9667)">
                <path d="M0,23.047C0.295,22.648 -4.924,20.818 -5.715,20.734C-6.082,20.693 -6.393,21.07 -6.391,21.409C-8.045,21.112 -9.525,20.451 -10.836,19.427C-11.158,19.225 -11.732,19.401 -11.791,19.817C-11.926,20.79 -19.061,15.01 -20.088,14.242C-20.512,13.926 -20.973,14.372 -21.023,14.777C-21.369,17.559 -23.99,14.215 -24.848,13.569C-25.002,13.453 -25.197,13.463 -25.363,13.542C-27.258,11.453 -28.641,9.839 -29.514,6.941C-29.789,6.024 -29.947,5.092 -30.074,4.157C-28.463,7.313 -26.592,10.467 -23.918,12.846C-23.691,13.049 -23.277,12.778 -23.473,12.504C-25.621,9.502 -28.209,6.838 -29.941,3.543C-29.994,3.443 -30.086,3.436 -30.166,3.465C-30.334,2.012 -30.434,0.551 -30.652,-0.903C-30.686,-1.121 -30.979,-1.033 -31,-0.855C-31.553,3.277 -30.361,12.125 -25.73,14.038C-26.225,15.859 -26.125,15.264 -26.186,17.33C-26.209,18.138 -29.955,13.846 -30.432,13.071C-32.184,10.215 -33.453,7.028 -34.906,4.013C-35.025,3.764 -35.375,3.982 -35.27,4.226C-33.021,9.509 -31.18,16.465 -25.873,19.486C-25.537,19.68 -25.092,19.438 -25.096,19.042C-25.131,14.781 -23.918,15.995 -21.568,18.073C-21.182,18.414 -20.674,18.248 -20.494,17.791C-19.389,14.964 -18.162,17.397 -16.521,19.009C-15.057,20.447 -13.627,21.4 -11.727,22.203C-11.389,22.344 -10.846,22.274 -10.781,21.818C-10.721,21.418 -6.5,23.092 -5.895,23.243C-5.471,23.35 -5.043,23.038 -5.041,22.595C-5.041,22.318 -0.553,24.028 0.336,24.14C0.566,24.168 0.863,23.944 0.893,23.715C0.908,23.623 0.922,23.531 0.936,23.442C1.016,22.86 0.357,22.568 0,23.047" style="fill:rgb(89,86,85);fill-rule:nonzero;"/>
            </g>
            <g transform="matrix(0.504249,-0.863558,-0.863558,-0.504249,296.12393,416.274881)">
                <path d="M-4.123,-2.401C-4.166,-2.585 -3.911,-2.768 -3.779,-2.596C-1.69,0.14 -2.699,4.508 -4.123,7.307C-4.249,7.554 -4.689,7.377 -4.581,7.116C-3.267,3.946 -3.362,0.877 -4.123,-2.401" style="fill:rgb(89,86,85);fill-rule:nonzero;"/>
            </g>
            <g transform="matrix(1,0,0,1,266.9189,350.1586)">
                <path d="M0,11.69C-0.643,8.888 -0.416,6.59 0.387,3.83C0.871,2.163 3.525,-3.488 3.277,1.341C3.25,1.823 3.957,2.005 4.182,1.586C5.049,-0.034 6.012,-1.445 7.123,-2.906C7.596,-3.529 7.326,-4.153 7.547,-2.79C7.553,-2.751 7.576,-2.729 7.592,-2.696C6.527,3.418 6.898,10.206 9.252,15.929C6.42,19.562 2.904,22.775 0.043,26.284C-0.143,26.513 0.152,26.825 0.375,26.614C3.633,23.509 6.803,20.068 9.492,16.333C9.746,16.486 10.186,16.255 10.049,15.925C10.012,15.837 9.99,15.747 9.953,15.658C15.318,7.973 18.561,-0.911 16.42,-10.599C19.869,-4.321 20.873,2.673 20.062,9.868C20.008,10.357 20.646,10.5 20.947,10.234C23.154,8.289 21.809,11.231 23.488,12.236C29.492,15.825 22.518,21.166 19.727,24.407C19.576,24.58 19.762,24.853 19.975,24.731C23.596,22.632 26.617,19.377 27.49,15.221C28.184,11.918 23.428,11.377 23.244,7.973C23.217,7.503 22.687,7.284 22.338,7.599C20.467,9.274 21.262,7.448 21.318,5.551C21.385,3.32 21.053,1.119 20.723,-1.077C20.055,-5.49 18.092,-9.373 15.59,-13C15.404,-13.267 14.967,-13.019 15.15,-12.743C15.234,-12.613 15.299,-12.48 15.383,-12.349C15.188,-12.254 15.047,-12.059 15.119,-11.789C16.848,-5.291 15.482,1.735 13.566,8.046C12.764,10.701 11.41,13.037 9.795,15.215C7.611,9.501 7.674,3.546 8.143,-2.458C8.189,-2.469 8.236,-2.474 8.277,-2.492C9.289,-2.964 9.975,-3.534 10.555,-4.257C9.158,0.407 7.879,5.697 8.525,10.579C8.555,10.79 8.9,10.892 8.939,10.633C9.697,5.621 9.873,0.687 11.137,-4.27C11.195,-4.502 10.984,-4.626 10.809,-4.593C11.115,-5.028 11.404,-5.512 11.701,-6.07C13.162,-8.804 12.316,-9.063 12.979,-5.629C13.061,-5.201 13.727,-5.117 13.918,-5.506C15.367,-8.455 14.715,-11.578 14.936,-14.765C14.959,-15.083 14.473,-15.135 14.393,-14.839C14.021,-13.482 13.963,-12.297 13.945,-10.875C13.949,-9.65 13.879,-8.429 13.73,-7.21C13.574,-8.138 13.336,-9.041 13.01,-9.925C12.861,-10.396 12.189,-10.408 12.043,-9.925C11.83,-9.157 11.584,-8.397 11.307,-7.648C11.043,-5.856 10.039,-4.832 8.291,-4.581C8.225,-5.091 7.67,-5.242 7.357,-4.834C6.281,-3.425 5.225,-2.023 4.234,-0.553C4.186,-1.027 4.129,-1.499 4.117,-1.976C4.115,-2.224 3.811,-2.445 3.582,-2.282C-0.021,0.321 -3.131,7.817 -0.498,11.9C-0.33,12.161 0.068,11.994 0,11.69" style="fill:rgb(89,86,85);fill-rule:nonzero;"/>
            </g>
            <g transform="matrix(-0.859472,-0.511183,-0.511183,0.859472,270.653094,367.433905)">
                <path d="M-5.624,-20.232C-9.605,-13.23 -7.757,-5.489 -5.214,1.603C-5.123,1.855 -5.493,1.961 -5.624,1.764C-9.748,-4.38 -9.829,-14.209 -6.054,-20.488C-5.886,-20.762 -5.465,-20.511 -5.624,-20.232" style="fill:rgb(89,86,85);fill-rule:nonzero;"/>
            </g>
            <g transform="matrix(1,0,0,1,291.2354,369.5033)">
                <path d="M0,-5.266C0.219,-5.527 -0.107,-5.848 -0.367,-5.636C-1.496,-4.71 -2.582,-3.735 -3.719,-2.817C-4.99,-1.787 -6.52,-1.054 -7.732,0.026C-7.967,0.233 -7.717,0.582 -7.447,0.518C-6.113,0.209 -4.91,-0.733 -3.842,-1.561C-2.428,-2.661 -1.143,-3.885 0,-5.266" style="fill:rgb(89,86,85);fill-rule:nonzero;"/>
            </g>
            <g transform="matrix(0.993174,0.116639,0.116639,-0.993174,240.165379,441.64799)">
                <path d="M0.687,0.095C0.868,-0.111 1.23,0.064 1.117,0.338C-0.485,4.239 -0.301,7.803 0.687,11.849C0.747,12.087 0.352,12.202 0.275,11.97C-0.897,8.399 -2.093,3.242 0.687,0.095" style="fill:rgb(89,86,85);fill-rule:nonzero;"/>
            </g>
            <g transform="matrix(0.034747,0.999396,0.999396,-0.034747,232.922559,422.218531)">
                <path d="M4.016,-4.491C3.957,-4.746 4.34,-4.872 4.408,-4.613C5.164,-1.681 5.336,1.52 4.016,4.345C3.919,4.553 3.549,4.48 3.567,4.24C3.794,1.255 4.703,-1.459 4.016,-4.491" style="fill:rgb(89,86,85);fill-rule:nonzero;"/>
            </g>
            <g transform="matrix(1,0,0,1,249.8447,424.9958)">
                <path d="M0,0.219C1.131,0.115 2.313,0.711 3.379,0.419C3.538,0.376 3.623,0.18 3.535,0.036C2.88,-1.038 1.096,-0.922 0,-0.817C-1.381,-0.682 -2.674,-0.177 -3.761,0.679C-3.979,0.85 -3.742,1.257 -3.485,1.153C-2.361,0.686 -1.217,0.333 0,0.219" style="fill:rgb(89,86,85);fill-rule:nonzero;"/>
            </g>
            <g transform="matrix(1,0,0,1,256.5303,428.191)">
                <path d="M0,1.226C0.225,1.162 0.223,0.842 0,0.776C-1.395,0.354 -2.883,0.45 -4.327,0.336C-6.316,0.179 -8.307,-0.203 -10.185,-0.877C-10.426,-0.964 -10.595,-0.568 -10.361,-0.461C-7.351,0.912 -3.302,2.19 0,1.226" style="fill:rgb(89,86,85);fill-rule:nonzero;"/>
            </g>
            <g transform="matrix(1,0,0,1,208.6465,407.4438)">
                <path d="M0,8.897C-0.076,9.177 0.337,9.287 0.427,9.017C1.154,6.867 2.723,5.065 4.366,3.548C5.241,2.744 6.233,2.097 7.287,1.554C8.104,1.133 9.029,1.091 9.818,0.651C10.018,0.54 9.961,0.249 9.756,0.184C7.913,-0.39 5.518,1.549 4.205,2.629C2.247,4.242 0.657,6.436 0,8.897" style="fill:rgb(89,86,85);fill-rule:nonzero;"/>
            </g>
            <g transform="matrix(1,0,0,1,212.4849,385.1793)">
                <path d="M0,15.851C0.3,15.772 0.234,15.316 -0.072,15.316C-4.195,15.314 -7.569,14.431 -11.1,12.26C-12.835,11.194 -14.307,9.789 -15.746,8.372C-18.021,6.128 -17.7,5.475 -15.055,4.504C-7.553,1.751 0.604,0.219 6.665,6.72C6.834,6.901 7.078,6.639 6.931,6.454C0.205,-1.999 -10.332,1.653 -18.907,4.955C-19.158,5.053 -19.378,5.375 -19.184,5.636C-15.043,11.208 -7.548,17.85 0,15.851" style="fill:rgb(89,86,85);fill-rule:nonzero;"/>
            </g>
            <g transform="matrix(-0.137261,0.990535,0.990535,0.137261,209.800756,387.708035)">
                <path d="M5.171,-5.807C5.448,-2.358 5.31,1.094 5.597,4.549C5.616,4.802 5.279,4.893 5.171,4.662C3.702,1.528 4.718,-2.409 4.621,-5.735C4.61,-6.087 5.143,-6.169 5.171,-5.807" style="fill:rgb(89,86,85);fill-rule:nonzero;"/>
            </g>
            <g transform="matrix(1,0,0,1,204.832,378.037)">
                <path d="M0,8.045C-1.25,6.504 -2.669,5.217 -3.794,3.545C-4.72,2.168 -5.502,0.72 -6.529,-0.586C-6.617,-0.694 -6.825,-0.575 -6.771,-0.443C-5.499,2.578 -3.625,7.3 -0.325,8.602C0.021,8.739 0.183,8.274 0,8.045" style="fill:rgb(89,86,85);fill-rule:nonzero;"/>
            </g>
            <g transform="matrix(-0.995505,-0.09471,-0.09471,0.995505,213.555593,431.516226)">
                <path d="M-2.145,-13.136C0.095,-9.449 0.348,-3.816 -1.748,-0.007C-1.881,0.234 -2.207,0.007 -2.145,-0.223C-0.997,-4.417 -0.754,-8.882 -2.599,-12.925C-2.735,-13.225 -2.308,-13.403 -2.145,-13.136" style="fill:rgb(89,86,85);fill-rule:nonzero;"/>
            </g>
        </g>
    </g>
</svg>
