<?xml version="1.0" encoding="UTF-8" standalone="no"?>
<!DOCTYPE svg PUBLIC "-//W3C//DTD SVG 1.1//EN" "http://www.w3.org/Graphics/SVG/1.1/DTD/svg11.dtd">
<svg width="100%" height="100%" viewBox="0 0 116 178" version="1.1" xmlns="http://www.w3.org/2000/svg" xmlns:xlink="http://www.w3.org/1999/xlink" xml:space="preserve" xmlns:serif="http://www.serif.com/" style="fill-rule:evenodd;clip-rule:evenodd;stroke-linejoin:round;stroke-miterlimit:2;">
    <g transform="matrix(1,0,0,1,-186.229286,-17.719804)">
        <g transform="matrix(1.319202,0,0,1.319202,15.140421,-154.701397)">
            <path d="M153.949,169.25C159.38,159.117 172.699,154.956 182.729,160.635C189.866,164.676 195.059,173.574 190.745,181.483C185.497,191.106 171.649,195.784 161.523,192.983C151.127,189.192 148.982,178.517 153.949,169.25ZM204.9,143.795C197.118,137.029 187.443,131.079 176.882,130.719C167.591,130.403 158.523,134.313 150.999,139.507C132.622,152.193 127.178,173.238 130.701,194.552C135,220.552 148.408,245.859 166.527,264.833C167.237,265.576 168.911,265.127 170.666,264.224C172.37,263.436 174.072,262.166 175.183,261.047C190.868,245.26 202.343,225.99 210.006,205.157C217.441,184.944 223.45,159.924 204.9,143.795Z" style="fill:white;fill-rule:nonzero;"/>
        </g>
    </g>
</svg>
